<svg xmlns="http://www.w3.org/2000/svg" width="167" height="50" viewBox="0 0 167 50">
    <g fill="none" fill-rule="evenodd">
        <rect width="167" height="50" fill="#FFF" rx="25"/>
        <path fill="#000" fill-rule="nonzero" d="M55.88 17.13h1.45c.693 0 1.268-.23 1.725-.69.457-.46.685-1.117.685-1.97 0-.86-.225-1.523-.675-1.99-.45-.467-1.022-.7-1.715-.7h-1.47v5.35zm1.48.87H54.9v-7.09h2.48c.953 0 1.753.315 2.4.945.647.63.97 1.502.97 2.615 0 1.107-.327 1.972-.98 2.595-.653.623-1.457.935-2.41.935zm5.63-1.14c.293.3.65.45 1.07.45.42 0 .775-.152 1.065-.455.29-.303.435-.725.435-1.265 0-.533-.145-.952-.435-1.255a1.417 1.417 0 0 0-1.065-.455c-.42 0-.775.152-1.065.455-.29.303-.435.722-.435 1.255 0 .54.143.963.43 1.27zm-.7-3.09c.467-.487 1.057-.73 1.77-.73.713 0 1.302.242 1.765.725.463.483.695 1.092.695 1.825 0 .74-.23 1.352-.69 1.835-.46.483-1.05.725-1.77.725s-1.31-.242-1.77-.725c-.46-.483-.69-1.095-.69-1.835 0-.733.23-1.34.69-1.82zm8.14-.58h.97l1.25 3.62 1.06-3.62h.99L73.14 18h-.97l-1.28-3.66L69.64 18h-.99l-1.58-4.81h1.03l1.08 3.62 1.25-3.62zm6.16 2.03V18h-.94v-4.81h.92v.69c.32-.553.813-.83 1.48-.83.553 0 .978.177 1.275.53.297.353.445.81.445 1.37V18h-.94v-2.89c0-.807-.373-1.21-1.12-1.21-.353 0-.628.125-.825.375-.197.25-.295.565-.295.945zM82.21 18h-.94v-7.24h.94V18zm2.59-1.14c.293.3.65.45 1.07.45.42 0 .775-.152 1.065-.455.29-.303.435-.725.435-1.265 0-.533-.145-.952-.435-1.255a1.417 1.417 0 0 0-1.065-.455c-.42 0-.775.152-1.065.455-.29.303-.435.722-.435 1.255 0 .54.143.963.43 1.27zm-.7-3.09c.467-.487 1.057-.73 1.77-.73.713 0 1.302.242 1.765.725.463.483.695 1.092.695 1.825 0 .74-.23 1.352-.69 1.835-.46.483-1.05.725-1.77.725s-1.31-.242-1.77-.725c-.46-.483-.69-1.095-.69-1.835 0-.733.23-1.34.69-1.82zm5.13 2.94c0-.413.133-.745.4-.995s.62-.405 1.06-.465l1.3-.19c.247-.033.37-.153.37-.36a.805.805 0 0 0-.26-.62c-.173-.16-.433-.24-.78-.24-.32 0-.573.088-.76.265a1.106 1.106 0 0 0-.33.705l-.9-.21c.047-.46.257-.835.63-1.125.373-.29.82-.435 1.34-.435.68 0 1.183.165 1.51.495.327.33.49.752.49 1.265v2.41c0 .287.02.55.06.79h-.92a3.96 3.96 0 0 1-.05-.65c-.133.213-.328.4-.585.56-.257.16-.578.24-.965.24-.473 0-.86-.142-1.16-.425-.3-.283-.45-.622-.45-1.015zm1.74.65c.42 0 .757-.113 1.01-.34.253-.227.38-.587.38-1.08v-.22l-1.47.22a.929.929 0 0 0-.51.23c-.127.12-.19.283-.19.49 0 .187.072.35.215.49.143.14.332.21.565.21zm4.35-1.78c0 .507.125.92.375 1.24.25.32.595.48 1.035.48.42 0 .757-.163 1.01-.49.253-.327.38-.743.38-1.25 0-.5-.123-.903-.37-1.21-.247-.307-.583-.46-1.01-.46-.427 0-.77.157-1.03.47-.26.313-.39.72-.39 1.22zm2.813 1.95l-.003-.26a1.583 1.583 0 0 1-.575.615 1.668 1.668 0 0 1-.915.245c-.687 0-1.238-.242-1.655-.725-.417-.483-.625-1.092-.625-1.825 0-.7.213-1.295.64-1.785.427-.49.973-.735 1.64-.735.393 0 .713.078.96.235.247.157.417.348.51.575v-3.11h.93v6.35c0 .327.017.623.05.89h-.91a3.384 3.384 0 0 1-.047-.47zm5.997-.67c.293.3.65.45 1.07.45.42 0 .775-.152 1.065-.455.29-.303.435-.725.435-1.265 0-.533-.145-.952-.435-1.255a1.417 1.417 0 0 0-1.065-.455c-.42 0-.775.152-1.065.455-.29.303-.435.722-.435 1.255 0 .54.143.963.43 1.27zm-.7-3.09c.467-.487 1.057-.73 1.77-.73.713 0 1.302.242 1.765.725.463.483.695 1.092.695 1.825 0 .74-.23 1.352-.69 1.835-.46.483-1.05.725-1.77.725s-1.31-.242-1.77-.725c-.46-.483-.69-1.095-.69-1.835 0-.733.23-1.34.69-1.82zm6.37 1.45V18h-.94v-4.81h.92v.69c.32-.553.813-.83 1.48-.83.553 0 .978.177 1.275.53.297.353.445.81.445 1.37V18h-.94v-2.89c0-.807-.373-1.21-1.12-1.21-.353 0-.628.125-.825.375-.197.25-.295.565-.295.945zm8.44-3.55v1.52h1.04v.85h-1.04v2.5c0 .227.052.393.155.5.103.107.275.16.515.16.14 0 .263-.013.37-.04v.8c-.16.06-.373.09-.64.09-.413 0-.74-.12-.98-.36s-.36-.577-.36-1.01v-2.64h-.92v-.85h.26c.247 0 .432-.068.555-.205a.768.768 0 0 0 .185-.535v-.78h.86zm3.23 3.5V18h-.94v-7.24h.94v2.99c.32-.467.807-.7 1.46-.7.553 0 .978.177 1.275.53.297.353.445.81.445 1.37V18h-.94v-2.89c0-.807-.373-1.21-1.12-1.21-.347 0-.617.118-.81.355-.193.237-.297.542-.31.915zm5.29-.07h2.63c-.013-.36-.133-.655-.36-.885-.227-.23-.547-.345-.96-.345-.373 0-.68.122-.92.365s-.37.532-.39.865zm2.77 1.25l.81.28c-.14.447-.4.812-.78 1.095-.38.283-.84.425-1.38.425a2.351 2.351 0 0 1-1.715-.695c-.47-.463-.705-1.088-.705-1.875 0-.733.227-1.34.68-1.82.453-.48.993-.72 1.62-.72.727 0 1.293.228 1.7.685.407.457.61 1.068.61 1.835 0 .12-.007.22-.02.3h-3.62c.007.427.148.777.425 1.05s.618.41 1.025.41c.687 0 1.137-.323 1.35-.97z"/>
        <path fill="#000" d="M63.12 37h2.096L60.8 25.656h-2.224L54.16 37h2.032l1.056-2.848h4.8L63.12 37zm-3.472-9.264l1.728 4.64H57.92l1.728-4.64zm8.768 12.304v-3.92c.4.592 1.248 1.072 2.368 1.072 2.24 0 3.664-1.76 3.664-4.096 0-2.304-1.296-4.064-3.6-4.064-1.2 0-2.096.56-2.48 1.232v-1.056h-1.792V40.04h1.84zm4.176-6.944c0 1.488-.864 2.448-2.096 2.448-1.216 0-2.096-.96-2.096-2.448 0-1.456.88-2.416 2.096-2.416 1.248 0 2.096.96 2.096 2.416zm5.488 6.944v-3.92c.4.592 1.248 1.072 2.368 1.072 2.24 0 3.664-1.76 3.664-4.096 0-2.304-1.296-4.064-3.6-4.064-1.2 0-2.096.56-2.48 1.232v-1.056H76.24V40.04h1.84zm4.176-6.944c0 1.488-.864 2.448-2.096 2.448-1.216 0-2.096-.96-2.096-2.448 0-1.456.88-2.416 2.096-2.416 1.248 0 2.096.96 2.096 2.416zm15.232-4.784c-.256-1.264-1.296-2.896-3.968-2.896-2.112 0-3.856 1.568-3.856 3.472 0 1.696 1.152 2.832 2.88 3.184l1.6.336c.976.208 1.52.8 1.52 1.536 0 .88-.704 1.568-2.064 1.568-1.632 0-2.48-1.088-2.592-2.272l-1.792.512c.176 1.632 1.504 3.488 4.384 3.488 2.592 0 4.016-1.68 4.016-3.44 0-1.6-1.072-2.864-3.072-3.264l-1.632-.336c-.88-.192-1.328-.736-1.328-1.456 0-.864.8-1.632 1.952-1.632 1.52 0 2.112 1.04 2.224 1.744l1.728-.544zm4.32-1.488h-1.68v1.168c0 .688-.368 1.216-1.2 1.216h-.4v1.648h1.44v3.92c0 1.456.896 2.32 2.336 2.32.672 0 1.024-.128 1.136-.176v-1.536l-.205.032a3.564 3.564 0 0 1-.435.032c-.688 0-.992-.288-.992-.976v-3.616h1.616v-1.648h-1.616v-2.384zm6.912 8.752c-1.136 0-2.176-.864-2.176-2.48s1.04-2.448 2.176-2.448c1.152 0 2.176.832 2.176 2.448 0 1.632-1.024 2.48-2.176 2.48zm0-6.608c-2.32 0-4.032 1.744-4.032 4.128 0 2.4 1.712 4.144 4.032 4.144 2.336 0 4.048-1.744 4.048-4.144 0-2.384-1.712-4.128-4.048-4.128zm10.4.192a2.658 2.658 0 0 0-.496-.048c-1.024 0-1.888.496-2.256 1.344v-1.248h-1.808V37h1.856v-3.712c0-1.456.656-2.288 2.096-2.288.192 0 .4.016.608.048V29.16zm2.816 3.088c.064-.832.736-1.728 1.904-1.728 1.28 0 1.888.816 1.92 1.728h-3.824zm4.032 2.032l1.568.496c-.416 1.36-1.648 2.464-3.52 2.464-2.112 0-3.984-1.536-3.984-4.176 0-2.464 1.824-4.096 3.792-4.096 2.4 0 3.808 1.584 3.808 4.048 0 .304-.032.56-.048.592h-5.696c.048 1.184.976 2.032 2.128 2.032 1.12 0 1.696-.592 1.952-1.36zM31.394 14.538c.869-.937 1.457-2.24 1.297-3.538-1.254.045-2.773.74-3.67 1.677-.808.83-1.513 2.156-1.325 3.429 1.4.096 2.827-.632 3.698-1.568zm2.668 8.964c-.027-2.91 2.288-4.308 2.391-4.376-1.3-1.976-3.328-2.247-4.05-2.277-1.724-.182-3.365 1.053-4.24 1.053-.873 0-2.223-1.028-3.654-1.001-1.881.03-3.614 1.134-4.581 2.882-1.954 3.517-.501 8.728 1.403 11.58.93 1.397 2.04 2.963 3.495 2.906 1.404-.056 1.934-.941 3.63-.941 1.695 0 2.172.941 3.655.913 1.51-.028 2.466-1.424 3.39-2.824 1.068-1.619 1.507-3.187 1.534-3.267-.034-.017-2.943-1.171-2.973-4.648z"/>
    </g>
</svg>
