<?xml version="1.0" encoding="UTF-8"?>
<svg width="110px" height="110px" viewBox="0 0 110 110" version="1.1" xmlns="http://www.w3.org/2000/svg" xmlns:xlink="http://www.w3.org/1999/xlink">
    <!-- Generator: sketchtool 58 (101010) - https://sketch.com -->
    <title>5D7892D5-B2C3-4D51-BE4E-EFFB03565ABE</title>
    <desc>Created with sketchtool.</desc>
    <g id="Visual" stroke="none" stroke-width="1" fill="none" fill-rule="evenodd">
        <g id="Homepage--Copy" transform="translate(-1055.000000, -3277.000000)">
            <g id="Bostel-is-Used-by" transform="translate(370.000000, 3084.000000)">
                <g id="Private-Practices" transform="translate(600.000000, 114.000000)">
                    <g id="Group-9" transform="translate(85.000000, 79.000000)">
                        <path d="M25.638852,-1.03584031e-15 L84.361148,1.03584031e-15 C93.2763354,-6.01853049e-16 96.5091978,0.928256111 99.768457,2.67132704 C103.027716,4.41439796 105.585602,6.97228371 107.328673,10.231543 C109.071744,13.4908022 110,16.7236646 110,25.638852 L110,84.361148 C110,93.2763354 109.071744,96.5091978 107.328673,99.768457 C105.585602,103.027716 103.027716,105.585602 99.768457,107.328673 C96.5091978,109.071744 93.2763354,110 84.361148,110 L25.638852,110 C16.7236646,110 13.4908022,109.071744 10.231543,107.328673 C6.97228371,105.585602 4.41439796,103.027716 2.67132704,99.768457 C0.928256111,96.5091978 4.01235366e-16,93.2763354 -6.90560205e-16,84.361148 L6.90560205e-16,25.638852 C-4.01235366e-16,16.7236646 0.928256111,13.4908022 2.67132704,10.231543 C4.41439796,6.97228371 6.97228371,4.41439796 10.231543,2.67132704 C13.4908022,0.928256111 16.7236646,6.01853049e-16 25.638852,-1.03584031e-15 Z" id="Rectangle" fill="#F3F3F3"></path>
                        <g id="icons8-organ_transplantation" transform="translate(31.000000, 33.000000)" fill="#F36B1C" fill-rule="nonzero">
                            <path d="M7.29000042,0 C3.29272357,0 0,3.29272357 0,7.29000042 L0,36.4500021 C0,40.4472794 3.29272357,43.7400025 7.29000042,43.7400025 L41.3100024,43.7400025 C45.3072797,43.7400025 48.6000028,40.4472794 48.6000028,36.4500021 L48.6000028,7.29000042 C48.6000028,3.29272357 45.3072797,0 41.3100024,0 L7.29000042,0 Z M7.29000042,4.86000028 L41.3100024,4.86000028 C42.6830253,4.86000028 43.7400025,5.91697695 43.7400025,7.29000042 L43.7400025,9.72000056 L4.86000028,9.72000056 L4.86000028,7.29000042 C4.86000028,5.91697695 5.91697695,4.86000028 7.29000042,4.86000028 Z M4.86000028,14.5800008 L9.72000056,14.5800008 L9.72000056,19.4400011 L14.5800008,19.4400011 L14.5800008,14.5800008 L34.020002,14.5800008 L34.020002,19.4400011 L38.8800022,19.4400011 L38.8800022,14.5800008 L43.7400025,14.5800008 L43.7400025,36.4500021 C43.7400025,37.8230251 42.6830253,38.8800022 41.3100024,38.8800022 L7.29000042,38.8800022 C5.91697695,38.8800022 4.86000028,37.8230251 4.86000028,36.4500021 L4.86000028,14.5800008 Z M21.8700013,19.4400011 L21.8700013,24.3000014 L17.010001,24.3000014 L17.010001,29.1600017 L21.8700013,29.1600017 L21.8700013,34.020002 L26.7300015,34.020002 L26.7300015,29.1600017 L31.5900018,29.1600017 L31.5900018,24.3000014 L26.7300015,24.3000014 L26.7300015,19.4400011 L21.8700013,19.4400011 Z" id="Shape"></path>
                        </g>
                    </g>
                </g>
            </g>
        </g>
    </g>
</svg>