<?xml version="1.0" encoding="UTF-8"?>
<svg width="198px" height="177px" viewBox="0 0 198 177" version="1.1" xmlns="http://www.w3.org/2000/svg" xmlns:xlink="http://www.w3.org/1999/xlink">
    <!-- Generator: Sketch 58 (84663) - https://sketch.com -->
    <title>13972 copy 4</title>
    <desc>Created with Sketch.</desc>
    <defs>
        <rect id="path-1" x="0" y="0" width="204.863992" height="197.999992"></rect>
    </defs>
    <g id="Visual" stroke="none" stroke-width="1" fill="none" fill-rule="evenodd" opacity="0.149999991">
        <g id="Homepage--Copy-2" transform="translate(-304.000000, -4821.000000)">
            <g id="Footer" transform="translate(0.000000, 4568.000000)">
                <g id="13972-copy-4">
                    <g transform="translate(304.000000, 246.000000)">
                        <mask id="mask-2" fill="white">
                            <use xlink:href="#path-1"></use>
                        </mask>
                        <use id="Mask" fill-opacity="0" fill="#FFFFFF" xlink:href="#path-1"></use>
                        <g id="13972" mask="url(#mask-2)" fill="#FFFFFF">
                            <g transform="translate(-264.175990, -135.959995)">
                                <path d="M277.433013,148.940875 C278.924085,148.940875 280.132149,147.806335 280.132149,146.410435 C280.132149,145.012555 278.924085,143.879995 277.433013,143.879995 C275.944053,143.879995 274.735989,145.012555 274.735989,146.410435 C274.735989,147.806335 275.944053,148.940875 277.433013,148.940875" id="Fill-113"></path>
                                <path d="M307.003124,148.940875 C308.492084,148.940875 309.70226,147.806335 309.70226,146.410435 C309.70226,145.012555 308.492084,143.879995 307.003124,143.879995 C305.512052,143.879995 304.303988,145.012555 304.303988,146.410435 C304.303988,147.806335 305.512052,148.940875 307.003124,148.940875" id="Fill-114"></path>
                                <path d="M338.683123,148.940875 C340.174195,148.940875 341.382259,147.806335 341.382259,146.410435 C341.382259,145.012555 340.174195,143.879995 338.683123,143.879995 C337.194163,143.879995 335.983987,145.012555 335.983987,146.410435 C335.983987,147.806335 337.194163,148.940875 338.683123,148.940875" id="Fill-115"></path>
                                <path d="M368.251122,148.940875 C369.742194,148.940875 370.950258,147.806335 370.950258,146.410435 C370.950258,145.012555 369.742194,143.879995 368.251122,143.879995 C366.76005,143.879995 365.551986,145.012555 365.551986,146.410435 C365.551986,147.806335 366.76005,148.940875 368.251122,148.940875" id="Fill-116"></path>
                                <path d="M397.819121,148.940875 C399.310192,148.940875 400.518256,147.806335 400.518256,146.410435 C400.518256,145.012555 399.310192,143.879995 397.819121,143.879995 C396.328049,143.879995 395.119985,145.012555 395.119985,146.410435 C395.119985,147.806335 396.328049,148.940875 397.819121,148.940875" id="Fill-117"></path>
                                <path d="M429.497007,148.940875 C430.988079,148.940875 432.196143,147.806335 432.196143,146.410435 C432.196143,145.012555 430.988079,143.879995 429.497007,143.879995 C428.008047,143.879995 426.799983,145.012555 426.799983,146.410435 C426.799983,147.806335 428.008047,148.940875 429.497007,148.940875" id="Fill-118"></path>
                                <path d="M459.067118,148.940875 C460.556078,148.940875 461.766254,147.806335 461.766254,146.410435 C461.766254,145.012555 460.556078,143.879995 459.067118,143.879995 C457.576046,143.879995 456.367982,145.012555 456.367982,146.410435 C456.367982,147.806335 457.576046,148.940875 459.067118,148.940875" id="Fill-119"></path>
                                <path d="M261.654262,176.878673 C263.145334,176.878673 264.353398,175.746114 264.353398,174.350214 C264.353398,172.952334 263.145334,171.819774 261.654262,171.819774 C260.165302,171.819774 258.955126,172.952334 258.955126,174.350214 C258.955126,175.746114 260.165302,176.878673 261.654262,176.878673" id="Fill-132"></path>
                                <path d="M307.003124,176.658893 C308.494196,176.658893 309.70226,175.526334 309.70226,174.130434 C309.70226,172.732554 308.494196,171.599994 307.003124,171.599994 C305.512052,171.599994 304.303988,172.732554 304.303988,174.130434 C304.303988,175.526334 305.512052,176.658893 307.003124,176.658893" id="Fill-133"></path>
                                <path d="M277.435125,176.658893 C278.926197,176.658893 280.134261,175.526334 280.134261,174.130434 C280.134261,172.732554 278.926197,171.599994 277.435125,171.599994 C275.944053,171.599994 274.735989,172.732554 274.735989,174.130434 C274.735989,175.526334 275.944053,176.658893 277.435125,176.658893" id="Fill-133-Copy"></path>
                                <path d="M338.683123,176.658893 C340.174195,176.658893 341.382259,175.526334 341.382259,174.130434 C341.382259,172.732554 340.174195,171.599994 338.683123,171.599994 C337.192051,171.599994 335.983987,172.732554 335.983987,174.130434 C335.983987,175.526334 337.192051,176.658893 338.683123,176.658893" id="Fill-134"></path>
                                <path d="M368.24901,176.658893 C369.740082,176.658893 370.948146,175.526334 370.948146,174.130434 C370.948146,172.732554 369.740082,171.599994 368.24901,171.599994 C366.76005,171.599994 365.551986,172.732554 365.551986,174.130434 C365.551986,175.526334 366.76005,176.658893 368.24901,176.658893" id="Fill-135"></path>
                                <path d="M397.819121,176.658893 C399.30808,176.658893 400.518256,175.526334 400.518256,174.130434 C400.518256,172.732554 399.30808,171.599994 397.819121,171.599994 C396.328049,171.599994 395.119985,172.732554 395.119985,174.130434 C395.119985,175.526334 396.328049,176.658893 397.819121,176.658893" id="Fill-136"></path>
                                <path d="M429.499119,176.658893 C430.990191,176.658893 432.198255,175.526334 432.198255,174.130434 C432.198255,172.732554 430.990191,171.599994 429.499119,171.599994 C428.010159,171.599994 426.799983,172.732554 426.799983,174.130434 C426.799983,175.526334 428.010159,176.658893 429.499119,176.658893" id="Fill-137"></path>
                                <path d="M459.067118,176.658893 C460.55819,176.658893 461.766254,175.526334 461.766254,174.130434 C461.766254,172.732554 460.55819,171.599994 459.067118,171.599994 C457.576046,171.599994 456.367982,172.732554 456.367982,174.130434 C456.367982,175.526334 457.576046,176.658893 459.067118,176.658893" id="Fill-138"></path>
                                <path d="M277.433013,206.358892 C278.924085,206.358892 280.132149,205.228312 280.132149,203.830432 C280.132149,202.432553 278.924085,201.299993 277.433013,201.299993 C275.944053,201.299993 274.735989,202.432553 274.735989,203.830432 C274.735989,205.228312 275.944053,206.358892 277.433013,206.358892" id="Fill-153"></path>
                                <path d="M307.003124,206.358892 C308.492084,206.358892 309.70226,205.228312 309.70226,203.830432 C309.70226,202.432553 308.492084,201.299993 307.003124,201.299993 C305.512052,201.299993 304.303988,202.432553 304.303988,203.830432 C304.303988,205.228312 305.512052,206.358892 307.003124,206.358892" id="Fill-154"></path>
                                <path d="M338.683123,206.358892 C340.174195,206.358892 341.382259,205.228312 341.382259,203.830432 C341.382259,202.432553 340.174195,201.299993 338.683123,201.299993 C337.194163,201.299993 335.983987,202.432553 335.983987,203.830432 C335.983987,205.228312 337.194163,206.358892 338.683123,206.358892" id="Fill-155"></path>
                                <path d="M368.251122,206.358892 C369.742194,206.358892 370.950258,205.228312 370.950258,203.830432 C370.950258,202.432553 369.742194,201.299993 368.251122,201.299993 C366.76005,201.299993 365.551986,202.432553 365.551986,203.830432 C365.551986,205.228312 366.76005,206.358892 368.251122,206.358892" id="Fill-156"></path>
                                <path d="M397.819121,206.358892 C399.310192,206.358892 400.518256,205.228312 400.518256,203.830432 C400.518256,202.432553 399.310192,201.299993 397.819121,201.299993 C396.328049,201.299993 395.119985,202.432553 395.119985,203.830432 C395.119985,205.228312 396.328049,206.358892 397.819121,206.358892" id="Fill-157"></path>
                                <path d="M429.497007,206.358892 C430.988079,206.358892 432.196143,205.228312 432.196143,203.830432 C432.196143,202.432553 430.988079,201.299993 429.497007,201.299993 C428.008047,201.299993 426.799983,202.432553 426.799983,203.830432 C426.799983,205.228312 428.008047,206.358892 429.497007,206.358892" id="Fill-158"></path>
                                <path d="M459.067118,206.358892 C460.556078,206.358892 461.766254,205.228312 461.766254,203.830432 C461.766254,202.432553 460.556078,201.299993 459.067118,201.299993 C457.576046,201.299993 456.367982,202.432553 456.367982,203.830432 C456.367982,205.228312 457.576046,206.358892 459.067118,206.358892" id="Fill-159"></path>
                                <path d="M261.654262,233.902671 C263.145334,233.902671 264.353398,232.772091 264.353398,231.374211 C264.353398,229.976331 263.145334,228.843772 261.654262,228.843772 C260.165302,228.843772 258.955126,229.976331 258.955126,231.374211 C258.955126,232.772091 260.165302,233.902671 261.654262,233.902671" id="Fill-172"></path>
                                <path d="M277.435125,234.078891 C278.926197,234.078891 280.134261,232.948311 280.134261,231.550431 C280.134261,230.152551 278.926197,229.019992 277.435125,229.019992 C275.944053,229.019992 274.735989,230.152551 274.735989,231.550431 C274.735989,232.948311 275.944053,234.078891 277.435125,234.078891" id="Fill-173"></path>
                                <path d="M307.003124,234.078891 C308.494196,234.078891 309.70226,232.948311 309.70226,231.550431 C309.70226,230.152551 308.494196,229.019992 307.003124,229.019992 C305.512052,229.019992 304.303988,230.152551 304.303988,231.550431 C304.303988,232.948311 305.512052,234.078891 307.003124,234.078891" id="Fill-174"></path>
                                <path d="M338.681011,234.078891 C340.172083,234.078891 341.380147,232.948311 341.380147,231.550431 C341.380147,230.152551 340.172083,229.019992 338.681011,229.019992 C337.192051,229.019992 335.983987,230.152551 335.983987,231.550431 C335.983987,232.948311 337.192051,234.078891 338.681011,234.078891" id="Fill-175"></path>
                                <path d="M368.251122,234.078891 C369.740082,234.078891 370.950258,232.948311 370.950258,231.550431 C370.950258,230.152551 369.740082,229.019992 368.251122,229.019992 C366.76005,229.019992 365.551986,230.152551 365.551986,231.550431 C365.551986,232.948311 366.76005,234.078891 368.251122,234.078891" id="Fill-176"></path>
                                <path d="M397.819121,234.078891 C399.310192,234.078891 400.518256,232.948311 400.518256,231.550431 C400.518256,230.152551 399.310192,229.019992 397.819121,229.019992 C396.330161,229.019992 395.119985,230.152551 395.119985,231.550431 C395.119985,232.948311 396.330161,234.078891 397.819121,234.078891" id="Fill-177"></path>
                                <path d="M459.067118,234.078891 C460.55819,234.078891 461.766254,232.948311 461.766254,231.550431 C461.766254,230.152551 460.55819,229.019992 459.067118,229.019992 C457.576046,229.019992 456.367982,230.152551 456.367982,231.550431 C456.367982,232.948311 457.576046,234.078891 459.067118,234.078891" id="Fill-178"></path>
                                <path d="M429.499119,234.078891 C430.990191,234.078891 432.198255,232.948311 432.198255,231.550431 C432.198255,230.152551 430.990191,229.019992 429.499119,229.019992 C428.008047,229.019992 426.799983,230.152551 426.799983,231.550431 C426.799983,232.948311 428.008047,234.078891 429.499119,234.078891" id="Fill-178-Copy"></path>
                                <path d="M277.433013,261.80087 C278.924085,261.80087 280.132149,260.66633 280.132149,259.27043 C280.132149,257.87255 278.924085,256.73999 277.433013,256.73999 C275.944053,256.73999 274.735989,257.87255 274.735989,259.27043 C274.735989,260.66633 275.944053,261.80087 277.433013,261.80087" id="Fill-193"></path>
                                <path d="M307.003124,261.80087 C308.492084,261.80087 309.70226,260.66633 309.70226,259.27043 C309.70226,257.87255 308.492084,256.73999 307.003124,256.73999 C305.512052,256.73999 304.303988,257.87255 304.303988,259.27043 C304.303988,260.66633 305.512052,261.80087 307.003124,261.80087" id="Fill-194"></path>
                                <path d="M338.683123,261.80087 C340.174195,261.80087 341.382259,260.66633 341.382259,259.27043 C341.382259,257.87255 340.174195,256.73999 338.683123,256.73999 C337.194163,256.73999 335.983987,257.87255 335.983987,259.27043 C335.983987,260.66633 337.194163,261.80087 338.683123,261.80087" id="Fill-195"></path>
                                <path d="M368.251122,261.80087 C369.742194,261.80087 370.950258,260.66633 370.950258,259.27043 C370.950258,257.87255 369.742194,256.73999 368.251122,256.73999 C366.76005,256.73999 365.551986,257.87255 365.551986,259.27043 C365.551986,260.66633 366.76005,261.80087 368.251122,261.80087" id="Fill-196"></path>
                                <path d="M397.819121,261.80087 C399.310192,261.80087 400.518256,260.66633 400.518256,259.27043 C400.518256,257.87255 399.310192,256.73999 397.819121,256.73999 C396.328049,256.73999 395.119985,257.87255 395.119985,259.27043 C395.119985,260.66633 396.328049,261.80087 397.819121,261.80087" id="Fill-197"></path>
                                <path d="M429.497007,261.80087 C430.988079,261.80087 432.196143,260.66633 432.196143,259.27043 C432.196143,257.87255 430.988079,256.73999 429.497007,256.73999 C428.008047,256.73999 426.799983,257.87255 426.799983,259.27043 C426.799983,260.66633 428.008047,261.80087 429.497007,261.80087" id="Fill-198"></path>
                                <path d="M459.067118,261.80087 C460.556078,261.80087 461.766254,260.66633 461.766254,259.27043 C461.766254,257.87255 460.556078,256.73999 459.067118,256.73999 C457.576046,256.73999 456.367982,257.87255 456.367982,259.27043 C456.367982,260.66633 457.576046,261.80087 459.067118,261.80087" id="Fill-199"></path>
                                <path d="M261.654262,290.928649 C263.145334,290.928649 264.353398,289.794109 264.353398,288.398209 C264.353398,287.000329 263.145334,285.867769 261.654262,285.867769 C260.165302,285.867769 258.955126,287.000329 258.955126,288.398209 C258.955126,289.794109 260.165302,290.928649 261.654262,290.928649" id="Fill-212"></path>
                                <path d="M307.003124,291.500869 C308.494196,291.500869 309.70226,290.366329 309.70226,288.970429 C309.70226,287.572549 308.494196,286.439989 307.003124,286.439989 C305.512052,286.439989 304.303988,287.572549 304.303988,288.970429 C304.303988,290.366329 305.512052,291.500869 307.003124,291.500869" id="Fill-213"></path>
                                <path d="M277.435125,291.500869 C278.926197,291.500869 280.134261,290.366329 280.134261,288.970429 C280.134261,287.572549 278.926197,286.439989 277.435125,286.439989 C275.944053,286.439989 274.735989,287.572549 274.735989,288.970429 C274.735989,290.366329 275.944053,291.500869 277.435125,291.500869" id="Fill-213-Copy"></path>
                                <path d="M338.683123,291.500869 C340.174195,291.500869 341.382259,290.366329 341.382259,288.970429 C341.382259,287.572549 340.174195,286.439989 338.683123,286.439989 C337.192051,286.439989 335.983987,287.572549 335.983987,288.970429 C335.983987,290.366329 337.192051,291.500869 338.683123,291.500869" id="Fill-214"></path>
                                <path d="M368.24901,291.500869 C369.740082,291.500869 370.948146,290.366329 370.948146,288.970429 C370.948146,287.572549 369.740082,286.439989 368.24901,286.439989 C366.76005,286.439989 365.551986,287.572549 365.551986,288.970429 C365.551986,290.366329 366.76005,291.500869 368.24901,291.500869" id="Fill-215"></path>
                                <path d="M397.819121,291.500869 C399.30808,291.500869 400.518256,290.366329 400.518256,288.970429 C400.518256,287.572549 399.30808,286.439989 397.819121,286.439989 C396.328049,286.439989 395.119985,287.572549 395.119985,288.970429 C395.119985,290.366329 396.328049,291.500869 397.819121,291.500869" id="Fill-216"></path>
                                <path d="M429.499119,291.500869 C430.990191,291.500869 432.198255,290.366329 432.198255,288.970429 C432.198255,287.572549 430.990191,286.439989 429.499119,286.439989 C428.010159,286.439989 426.799983,287.572549 426.799983,288.970429 C426.799983,290.366329 428.010159,291.500869 429.499119,291.500869" id="Fill-217"></path>
                                <path d="M459.067118,291.500869 C460.55819,291.500869 461.766254,290.366329 461.766254,288.970429 C461.766254,287.572549 460.55819,286.439989 459.067118,286.439989 C457.576046,286.439989 456.367982,287.572549 456.367982,288.970429 C456.367982,290.366329 457.576046,291.500869 459.067118,291.500869" id="Fill-218"></path>
                                <path d="M276.860661,319.440648 C278.351733,319.440648 279.559797,318.306108 279.559797,316.910208 C279.559797,315.512328 278.351733,314.379768 276.860661,314.379768 C275.371701,314.379768 274.163637,315.512328 274.163637,316.910208 C274.163637,318.306108 275.371701,319.440648 276.860661,319.440648" id="Fill-233"></path>
                                <path d="M307.27346,319.440648 C308.76242,319.440648 309.972596,318.306108 309.972596,316.910208 C309.972596,315.512328 308.76242,314.379768 307.27346,314.379768 C305.782388,314.379768 304.574324,315.512328 304.574324,316.910208 C304.574324,318.306108 305.782388,319.440648 307.27346,319.440648" id="Fill-234"></path>
                                <path d="M337.686259,319.440648 C339.177331,319.440648 340.385395,318.306108 340.385395,316.910208 C340.385395,315.512328 339.177331,314.379768 337.686259,314.379768 C336.197299,314.379768 334.987123,315.512328 334.987123,316.910208 C334.987123,318.306108 336.197299,319.440648 337.686259,319.440648" id="Fill-235"></path>
                                <path d="M368.099058,319.440648 C369.59013,319.440648 370.798194,318.306108 370.798194,316.910208 C370.798194,315.512328 369.59013,314.379768 368.099058,314.379768 C366.607986,314.379768 365.399922,315.512328 365.399922,316.910208 C365.399922,318.306108 366.607986,319.440648 368.099058,319.440648" id="Fill-236"></path>
                                <path d="M398.511857,319.440648 C400.002928,319.440648 401.210992,318.306108 401.210992,316.910208 C401.210992,315.512328 400.002928,314.379768 398.511857,314.379768 C397.020785,314.379768 395.812721,315.512328 395.812721,316.910208 C395.812721,318.306108 397.020785,319.440648 398.511857,319.440648" id="Fill-237"></path>
                                <path d="M428.924655,319.440648 C430.415727,319.440648 431.623791,318.306108 431.623791,316.910208 C431.623791,315.512328 430.415727,314.379768 428.924655,314.379768 C427.435695,314.379768 426.227631,315.512328 426.227631,316.910208 C426.227631,318.306108 427.435695,319.440648 428.924655,319.440648" id="Fill-238"></path>
                                <path d="M459.337454,319.440648 C460.826414,319.440648 462.03659,318.306108 462.03659,316.910208 C462.03659,315.512328 460.826414,314.379768 459.337454,314.379768 C457.846382,314.379768 456.638318,315.512328 456.638318,316.910208 C456.638318,318.306108 457.846382,319.440648 459.337454,319.440648" id="Fill-239"></path>
                            </g>
                        </g>
                    </g>
                </g>
            </g>
        </g>
    </g>
</svg>