<?xml version="1.0" encoding="UTF-8"?>
<svg width="167px" height="50px" viewBox="0 0 167 50" version="1.1" xmlns="http://www.w3.org/2000/svg" xmlns:xlink="http://www.w3.org/1999/xlink">
    <!-- Generator: Sketch 59.1 (86144) - https://sketch.com -->
    <title>01-google</title>
    <desc>Created with Sketch.</desc>
    <defs>
        <path d="M57.8623047,11.6416016 C58.5361362,11.6416016 59.1188126,11.7718086 59.6103516,12.0322266 C60.3232458,12.4065774 60.7594393,13.0624953 60.9189453,14 L59.9570312,14 C59.8398432,13.4759088 59.5973326,13.0942395 59.2294922,12.8549805 C58.8616518,12.6157215 58.3977893,12.4960938 57.8378906,12.4960938 C57.1738248,12.4960938 56.6147484,12.7451147 56.1606445,13.2431641 C55.7065407,13.7412134 55.4794922,14.4833935 55.4794922,15.4697266 C55.4794922,16.3225954 55.6666648,17.0167616 56.0410156,17.5522461 C56.4153665,18.0877305 57.0257119,18.3554688 57.8720703,18.3554688 C58.51986,18.3554688 59.0561502,18.1674823 59.480957,17.7915039 C59.9057638,17.4155255 60.1230468,16.8076214 60.1328125,15.9677734 L57.8867188,15.9677734 L57.8867188,15.1621094 L61.0361328,15.1621094 L61.0361328,19 L60.4111328,19 L60.1767578,18.0771484 C59.8479801,18.4384784 59.5566419,18.6891269 59.3027344,18.8291016 C58.8763,19.0699882 58.3343132,19.1904297 57.6767578,19.1904297 C56.8271442,19.1904297 56.0963572,18.9153673 55.484375,18.3652344 C54.817054,17.6751268 54.4833984,16.7278706 54.4833984,15.5234375 C54.4833984,14.3222596 54.808916,13.3668655 55.4599609,12.6572266 C56.0784536,11.9801398 56.8792269,11.6416016 57.8623047,11.6416016 Z M64.6005859,13.6533203 C64.9716815,13.6533203 65.3313785,13.7403963 65.6796875,13.9145508 C66.0279965,14.0887053 66.2932934,14.3141262 66.4755859,14.5908203 C66.6513681,14.8544935 66.7685544,15.1621076 66.8271484,15.5136719 C66.879232,15.7545585 66.9052734,16.1386692 66.9052734,16.6660156 L63.0722656,16.6660156 C63.0885417,17.1966172 63.213866,17.6222315 63.4482422,17.9428711 C63.6826184,18.2635107 64.0455705,18.4238281 64.5371094,18.4238281 C64.996096,18.4238281 65.3623033,18.2724625 65.6357422,17.9697266 C65.791993,17.7939444 65.9026689,17.5904959 65.9677734,17.359375 L66.8320312,17.359375 C66.8092447,17.5514333 66.7335618,17.7654611 66.6049805,18.0014648 C66.4763991,18.2374686 66.3323576,18.4303378 66.1728516,18.5800781 C65.9059231,18.8404961 65.5755228,19.0162756 65.1816406,19.1074219 C64.970051,19.1595055 64.7307956,19.1855469 64.4638672,19.1855469 C63.8128223,19.1855469 63.26107,18.9487328 62.8085938,18.4750977 C62.3561175,18.0014625 62.1298828,17.3382204 62.1298828,16.4853516 C62.1298828,15.6455036 62.3577451,14.9635443 62.8134766,14.4394531 C63.269208,13.915362 63.8649052,13.6533203 64.6005859,13.6533203 Z M66.0019531,15.9677734 C65.9661457,15.5869122 65.8831387,15.2825532 65.7529297,15.0546875 C65.5120431,14.6315083 65.1100289,14.4199219 64.546875,14.4199219 C64.1432271,14.4199219 63.8046889,14.565591 63.53125,14.8569336 C63.2578111,15.1482762 63.1129558,15.5185524 63.0966797,15.9677734 L66.0019531,15.9677734 Z M68.1601562,12.3105469 L69.0488281,12.3105469 L69.0488281,13.7705078 L69.8837891,13.7705078 L69.8837891,14.4882812 L69.0488281,14.4882812 L69.0488281,17.9013672 C69.0488281,18.0836598 69.1106765,18.2057289 69.234375,18.2675781 C69.3027347,18.3033856 69.4166659,18.3212891 69.5761719,18.3212891 L69.7128906,18.3188477 C69.761719,18.31722 69.8186846,18.3131511 69.8837891,18.3066406 L69.8837891,19 C69.7828771,19.029297 69.6778977,19.0504557 69.5688477,19.0634766 C69.4597976,19.0764975 69.3417975,19.0830078 69.2148438,19.0830078 C68.8046854,19.0830078 68.5263679,18.9780284 68.3798828,18.7680664 C68.2333977,18.5581044 68.1601562,18.2854834 68.1601562,17.9501953 L68.1601562,14.4882812 L67.4521484,14.4882812 L67.4521484,13.7705078 L68.1601562,13.7705078 L68.1601562,12.3105469 Z M73.5410156,13.7949219 L74.4345703,13.7949219 L74.4345703,19 L73.5410156,19 L73.5410156,13.7949219 Z M73.5410156,11.8271484 L74.4345703,11.8271484 L74.4345703,12.8232422 L73.5410156,12.8232422 L73.5410156,11.8271484 Z M75.9384766,12.3105469 L76.8271484,12.3105469 L76.8271484,13.7705078 L77.6621094,13.7705078 L77.6621094,14.4882812 L76.8271484,14.4882812 L76.8271484,17.9013672 C76.8271484,18.0836598 76.8889968,18.2057289 77.0126953,18.2675781 C77.081055,18.3033856 77.1949862,18.3212891 77.3544922,18.3212891 L77.4912109,18.3188477 L77.4912109,18.3188477 C77.5400393,18.31722 77.5970049,18.3131511 77.6621094,18.3066406 L77.6621094,19 C77.5611974,19.029297 77.456218,19.0504557 77.347168,19.0634766 C77.2381179,19.0764975 77.1201178,19.0830078 76.9931641,19.0830078 C76.5830058,19.0830078 76.3046882,18.9780284 76.1582031,18.7680664 C76.011718,18.5581044 75.9384766,18.2854834 75.9384766,17.9501953 L75.9384766,14.4882812 L75.2304688,14.4882812 L75.2304688,13.7705078 L75.9384766,13.7705078 L75.9384766,12.3105469 Z M83.3945312,18.4335938 C83.9772165,18.4335938 84.3767893,18.2130556 84.5932617,17.7719727 C84.8097342,17.3308897 84.9179688,16.840172 84.9179688,16.2998047 C84.9179688,15.811521 84.8398445,15.4143896 84.6835938,15.1083984 C84.4361967,14.6266252 84.0097687,14.3857422 83.4042969,14.3857422 C82.8671848,14.3857422 82.4765637,14.5908183 82.2324219,15.0009766 C81.98828,15.4111349 81.8662109,15.9059216 81.8662109,16.4853516 C81.8662109,17.041995 81.98828,17.5058575 82.2324219,17.8769531 C82.4765637,18.2480487 82.8639296,18.4335938 83.3945312,18.4335938 Z M83.4287109,13.6191406 C84.1025424,13.6191406 84.6721982,13.8437478 85.1376953,14.2929688 C85.6031924,14.7421897 85.8359375,15.4029904 85.8359375,16.2753906 C85.8359375,17.1184938 85.6308614,17.8151014 85.2207031,18.3652344 C84.8105448,18.9153673 84.174158,19.1904297 83.3115234,19.1904297 C82.5921188,19.1904297 82.0208354,18.9471053 81.5976562,18.4604492 C81.1744771,17.9737931 80.9628906,17.3203166 80.9628906,16.5 C80.9628906,15.6210894 81.1858702,14.9212266 81.6318359,14.4003906 C82.0778017,13.8795547 82.6767541,13.6191406 83.4287109,13.6191406 Z M86.8808594,13.7705078 L87.7158203,13.7705078 L87.7158203,14.5126953 C87.9632174,14.2067042 88.225259,13.9869798 88.5019531,13.8535156 C88.7786472,13.7200514 89.0862613,13.6533203 89.4248047,13.6533203 C90.1669959,13.6533203 90.668293,13.9121068 90.9287109,14.4296875 C91.0719408,14.712892 91.1435547,15.1181614 91.1435547,15.6455078 L91.1435547,19 L90.25,19 L90.25,15.7041016 C90.25,15.3850896 90.2028,15.1279307 90.1083984,14.9326172 C89.9521477,14.6070947 89.6689474,14.4443359 89.2587891,14.4443359 C89.0504547,14.4443359 88.879558,14.4654946 88.7460938,14.5078125 C88.5052071,14.5794274 88.2936207,14.7226552 88.1113281,14.9375 C87.964843,15.1100269 87.8696291,15.2882478 87.8256836,15.472168 C87.7817381,15.6560882 87.7597656,15.9189436 87.7597656,16.2607422 L87.7597656,19 L86.8808594,19 L86.8808594,13.7705078 Z" id="path-1"></path>
        <path d="M60.1796875,24.2265625 C61.2578179,24.2265625 62.1901002,24.4348938 62.9765625,24.8515625 C64.1171932,25.4505238 64.8151029,26.4999925 65.0703125,28 L63.53125,28 C63.3437491,27.1614541 62.9557321,26.5507832 62.3671875,26.1679688 C61.7786429,25.7851543 61.0364628,25.59375 60.140625,25.59375 C59.0781197,25.59375 58.1835974,25.9921835 57.4570312,26.7890625 C56.7304651,27.5859415 56.3671875,28.7734296 56.3671875,30.3515625 C56.3671875,31.7161527 56.6666637,32.8268186 57.265625,33.6835938 C57.8645863,34.5403689 58.8411391,34.96875 60.1953125,34.96875 C61.231776,34.96875 62.0898404,34.6679718 62.7695312,34.0664062 C63.4492221,33.4648407 63.7968749,32.4921942 63.8125,31.1484375 L60.21875,31.1484375 L60.21875,29.859375 L65.2578125,29.859375 L65.2578125,36 L64.2578125,36 L63.8828125,34.5234375 C63.3567682,35.1015654 62.890627,35.502603 62.484375,35.7265625 C61.8020799,36.1119811 60.9349011,36.3046875 59.8828125,36.3046875 C58.5234307,36.3046875 57.3541716,35.8645877 56.375,34.984375 C55.3072863,33.8802028 54.7734375,32.364593 54.7734375,30.4375 C54.7734375,28.5156154 55.2942656,26.9869848 56.3359375,25.8515625 C57.3255258,24.7682237 58.606763,24.2265625 60.1796875,24.2265625 Z M70.796875,35.09375 C71.7291713,35.09375 72.3684879,34.7408889 72.7148438,34.0351562 C73.0611996,33.3294236 73.234375,32.5442752 73.234375,31.6796875 C73.234375,30.8984336 73.1093762,30.2630233 72.859375,29.7734375 C72.4635397,29.0026003 71.7812548,28.6171875 70.8125,28.6171875 C69.9531207,28.6171875 69.328127,28.9453092 68.9375,29.6015625 C68.546873,30.2578158 68.3515625,31.0494745 68.3515625,31.9765625 C68.3515625,32.867192 68.546873,33.609372 68.9375,34.203125 C69.328127,34.796878 69.9479124,35.09375 70.796875,35.09375 Z M70.8515625,27.390625 C71.9296929,27.390625 72.8411421,27.7499964 73.5859375,28.46875 C74.3307329,29.1875036 74.703125,30.2447847 74.703125,31.640625 C74.703125,32.9895901 74.3750033,34.1041623 73.71875,34.984375 C73.0624967,35.8645877 72.0442777,36.3046875 70.6640625,36.3046875 C69.5130151,36.3046875 68.5989617,35.9153685 67.921875,35.1367188 C67.2447883,34.358069 66.90625,33.3125066 66.90625,32 C66.90625,30.593743 67.2630173,29.4739625 67.9765625,28.640625 C68.6901077,27.8072875 69.6484315,27.390625 70.8515625,27.390625 Z M79.6953125,35.09375 C80.6276088,35.09375 81.2669254,34.7408889 81.6132812,34.0351562 C81.9596371,33.3294236 82.1328125,32.5442752 82.1328125,31.6796875 C82.1328125,30.8984336 82.0078137,30.2630233 81.7578125,29.7734375 C81.3619772,29.0026003 80.6796923,28.6171875 79.7109375,28.6171875 C78.8515582,28.6171875 78.2265645,28.9453092 77.8359375,29.6015625 C77.4453105,30.2578158 77.25,31.0494745 77.25,31.9765625 C77.25,32.867192 77.4453105,33.609372 77.8359375,34.203125 C78.2265645,34.796878 78.8463499,35.09375 79.6953125,35.09375 Z M79.75,27.390625 C80.8281304,27.390625 81.7395796,27.7499964 82.484375,28.46875 C83.2291704,29.1875036 83.6015625,30.2447847 83.6015625,31.640625 C83.6015625,32.9895901 83.2734408,34.1041623 82.6171875,34.984375 C81.9609342,35.8645877 80.9427152,36.3046875 79.5625,36.3046875 C78.4114526,36.3046875 77.4973992,35.9153685 76.8203125,35.1367188 C76.1432258,34.358069 75.8046875,33.3125066 75.8046875,32 C75.8046875,30.593743 76.1614548,29.4739625 76.875,28.640625 C77.5885452,27.8072875 78.546869,27.390625 79.75,27.390625 Z M88.2265625,27.484375 C88.8828158,27.484375 89.4557267,27.6458317 89.9453125,27.96875 C90.2109388,28.1510426 90.4817695,28.4166649 90.7578125,28.765625 L90.7578125,27.7109375 L92.0546875,27.7109375 L92.0546875,35.3203125 C92.0546875,36.3828178 91.8984391,37.2213511 91.5859375,37.8359375 C91.0026012,38.9713598 89.9010498,39.5390625 88.28125,39.5390625 C87.3802038,39.5390625 86.6223989,39.3372416 86.0078125,38.9335938 C85.3932261,38.5299459 85.0494795,37.8984418 84.9765625,37.0390625 L86.40625,37.0390625 C86.4739587,37.4140644 86.609374,37.703124 86.8125,37.90625 C87.1302099,38.2187516 87.6302049,38.375 88.3125,38.375 C89.3906304,38.375 90.0963525,37.9947955 90.4296875,37.234375 C90.6276052,36.7864561 90.71875,35.9869849 90.703125,34.8359375 C90.4218736,35.263023 90.0833353,35.5807281 89.6875,35.7890625 C89.2916647,35.9973969 88.7682324,36.1015625 88.1171875,36.1015625 C87.210933,36.1015625 86.4179721,35.7799511 85.7382812,35.1367188 C85.0585904,34.4934864 84.71875,33.4296949 84.71875,31.9453125 C84.71875,30.5442638 85.0611945,29.4505248 85.7460938,28.6640625 C86.430993,27.8776002 87.2578077,27.484375 88.2265625,27.484375 Z M90.7578125,31.78125 C90.7578125,30.7447865 90.544273,29.976565 90.1171875,29.4765625 C89.690102,28.97656 89.1458366,28.7265625 88.484375,28.7265625 C87.4947867,28.7265625 86.8177102,29.1900995 86.453125,30.1171875 C86.2604157,30.6119816 86.1640625,31.2604127 86.1640625,32.0625 C86.1640625,33.005213 86.3554668,33.7226538 86.7382812,34.2148438 C87.1210957,34.7070337 87.6354134,34.953125 88.28125,34.953125 C89.2916717,34.953125 90.0026021,34.4974004 90.4140625,33.5859375 C90.6432303,33.0703099 90.7578125,32.4687534 90.7578125,31.78125 Z M94.2109375,24.5234375 L95.6171875,24.5234375 L95.6171875,36 L94.2109375,36 L94.2109375,24.5234375 Z M101.210938,27.4453125 C101.80469,27.4453125 102.380206,27.584634 102.9375,27.8632812 C103.494794,28.1419285 103.919269,28.502602 104.210938,28.9453125 C104.45201,29.3069215 104.624203,29.7201834 104.727519,30.1851076 L104.773438,30.421875 C104.856771,30.8072936 104.898438,31.4218708 104.898438,32.265625 L98.765625,32.265625 C98.7916668,33.1145876 98.9921856,33.7955704 99.3671875,34.3085938 C99.7421894,34.8216171 100.322913,35.078125 101.109375,35.078125 C101.843754,35.078125 102.429685,34.8359399 102.867188,34.3515625 C103.117189,34.0703111 103.29427,33.7447935 103.398438,33.375 L104.78125,33.375 C104.744791,33.6822932 104.623699,34.0247377 104.417969,34.4023438 C104.212239,34.7799498 103.981772,35.0885405 103.726562,35.328125 C103.299477,35.7447937 102.770836,36.0260409 102.140625,36.171875 C101.802082,36.2552088 101.419273,36.296875 100.992188,36.296875 C99.9505156,36.296875 99.067712,35.9179725 98.34375,35.1601562 C97.619788,34.40234 97.2578125,33.3411527 97.2578125,31.9765625 C97.2578125,30.6328058 97.6223922,29.5416709 98.3515625,28.703125 C99.0807328,27.8645791 100.033848,27.4453125 101.210938,27.4453125 Z M103.453125,31.1484375 C103.395833,30.5390595 103.263022,30.0520852 103.054688,29.6875 C102.669269,29.0104133 102.026046,28.671875 101.125,28.671875 C100.479163,28.671875 99.9375022,28.9049456 99.5,29.3710938 C99.0624978,29.8372419 98.8307293,30.4296839 98.8046875,31.1484375 L103.453125,31.1484375 Z M111.40625,24.5234375 L116.570312,24.5234375 C117.591151,24.5234375 118.414059,24.811195 119.039062,25.3867188 C119.664066,25.9622425 119.976562,26.7708281 119.976562,27.8125 C119.976562,28.7083378 119.697919,29.4882779 119.140625,30.1523438 C118.583331,30.8164096 117.726568,31.1484375 116.570312,31.1484375 L112.960938,31.1484375 L112.960938,36 L111.40625,36 L111.40625,24.5234375 Z M118.40625,27.8203125 C118.40625,26.9765583 118.093753,26.4036473 117.46875,26.1015625 C117.124998,25.9401034 116.653649,25.859375 116.054688,25.859375 L112.960938,25.859375 L112.960938,29.8359375 L116.054688,29.8359375 C116.752608,29.8359375 117.319008,29.6875015 117.753906,29.390625 C118.188804,29.0937485 118.40625,28.5703163 118.40625,27.8203125 Z M121.78125,24.5234375 L123.1875,24.5234375 L123.1875,36 L121.78125,36 L121.78125,24.5234375 Z M126.375,33.7734375 C126.375,34.1796895 126.523436,34.4999988 126.820312,34.734375 C127.117189,34.9687512 127.468748,35.0859375 127.875,35.0859375 C128.369794,35.0859375 128.848956,34.9713553 129.3125,34.7421875 C130.093754,34.3619773 130.484375,33.7395877 130.484375,32.875 L130.484375,31.7421875 C130.312499,31.851563 130.091147,31.942708 129.820312,32.015625 C129.549478,32.088542 129.283855,32.1406248 129.023438,32.171875 L128.171875,32.28125 C127.661456,32.3489587 127.278647,32.4557284 127.023438,32.6015625 C126.591144,32.8463554 126.375,33.2369765 126.375,33.7734375 Z M129.78125,30.9296875 C130.104168,30.8880206 130.320312,30.7526053 130.429688,30.5234375 C130.492188,30.3984369 130.523438,30.2187512 130.523438,29.984375 C130.523438,29.5052059 130.352866,29.1575532 130.011719,28.9414062 C129.670571,28.7252593 129.182295,28.6171875 128.546875,28.6171875 C127.812496,28.6171875 127.291668,28.8151022 126.984375,29.2109375 C126.812499,29.4296875 126.700521,29.7552062 126.648438,30.1875 L125.335938,30.1875 C125.361979,29.1562448 125.696611,28.4388041 126.339844,28.0351562 C126.983076,27.6315084 127.729162,27.4296875 128.578125,27.4296875 C129.562505,27.4296875 130.361976,27.6171856 130.976562,27.9921875 C131.585941,28.3671894 131.890625,28.9505169 131.890625,29.7421875 L131.890625,34.5625 C131.890625,34.7083341 131.920573,34.8255204 131.980469,34.9140625 C132.040365,35.0026046 132.166666,35.046875 132.359375,35.046875 C132.421875,35.046875 132.492187,35.0429688 132.570312,35.0351562 C132.648438,35.0273437 132.73177,35.0156251 132.820312,35 L132.820312,36.0390625 L132.582812,36.1028126 C132.476562,36.1290626 132.389063,36.146875 132.320312,36.15625 C132.205729,36.1718751 132.04948,36.1796875 131.851562,36.1796875 C131.367185,36.1796875 131.015626,36.0078142 130.796875,35.6640625 C130.682291,35.4817699 130.601563,35.22396 130.554688,34.890625 C130.268228,35.2656269 129.856774,35.5911445 129.320312,35.8671875 C128.783851,36.1432305 128.192712,36.28125 127.546875,36.28125 C126.770829,36.28125 126.136721,36.0455753 125.644531,35.5742188 C125.152341,35.1028622 124.90625,34.5130244 124.90625,33.8046875 C124.90625,33.028642 125.148435,32.4270855 125.632812,32 C126.11719,31.5729145 126.7526,31.3098963 127.539062,31.2109375 L129.78125,30.9296875 Z M139.421875,27.6328125 L140.976562,27.6328125 L138.953125,33.2617197 C138.739584,33.8476558 138.546876,34.3671852 138.375,34.8203125 L138.025546,35.7250033 C137.396013,37.3276113 136.939585,38.328123 136.65625,38.7265625 C136.322915,39.1953148 135.750004,39.4296875 134.9375,39.4296875 C134.739582,39.4296875 134.58724,39.4218751 134.480469,39.40625 C134.373697,39.3906249 134.242188,39.3619794 134.085938,39.3203125 L134.085938,38.0390625 L134.347188,38.1078126 C134.461563,38.1359376 134.551562,38.1546875 134.617188,38.1640625 C134.726563,38.1796876 134.822916,38.1875 134.90625,38.1875 C135.166668,38.1875 135.358072,38.1445317 135.480469,38.0585938 C135.602865,37.9726558 135.705729,37.8671881 135.789062,37.7421875 L135.821289,37.6787111 C135.866211,37.5830084 135.949218,37.3906264 136.070312,37.1015625 L136.381727,36.3441842 C136.39634,36.3074365 136.409722,36.2734377 136.421875,36.2421875 L133.328125,27.6328125 L134.921875,27.6328125 L137.164062,34.4453125 L139.421875,27.6328125 Z" id="path-2"></path>
    </defs>
    <g id="Page-1" stroke="none" stroke-width="1" fill="none" fill-rule="evenodd">
        <g id="01-google" fill-rule="nonzero">
            <rect id="Rectangle" fill="#000000" x="0" y="0" width="167" height="50" rx="25"></rect>
            <g id="Getiton">
                <use fill="#000000" xlink:href="#path-1"></use>
                <use fill="#FFFFFF" xlink:href="#path-1"></use>
            </g>
            <g id="GooglePlay">
                <use fill="#000000" xlink:href="#path-2"></use>
                <use fill="#FFFFFF" xlink:href="#path-2"></use>
            </g>
            <g id="Group" transform="translate(20.000000, 13.000000)">
                <path d="M0.096,1.13 C0.04,1.33 0,1.545 0,1.792 L0,22.107 C0,22.35 0.038,22.564 0.093,22.762 L11.421,11.96 L0.096,1.13 Z" id="Path" fill="#48A0DC"></path>
                <path d="M2.616,0.34 C2.089,0.017 1.569,-0.064 1.13,0.048 L12.505,10.926 L15.841,7.746 L2.616,0.341 L2.616,0.34 Z" id="Path" fill="#88C057"></path>
                <path d="M20.717,10.475 L17.187,8.499 L13.571,11.946 L17.255,15.47 L20.69,13.571 C22.365,12.611 21.754,11.061 20.717,10.475 Z" id="Path" fill="#FFCC66"></path>
                <path d="M12.487,12.98 L1.097,23.84 C1.543,23.965 2.075,23.89 2.616,23.558 L15.883,16.228 L12.487,12.98 L12.487,12.98 Z" id="Path" fill="#ED7161"></path>
            </g>
        </g>
    </g>
</svg>