<?xml version="1.0" encoding="UTF-8"?>
<svg width="110px" height="110px" viewBox="0 0 110 110" version="1.1" xmlns="http://www.w3.org/2000/svg" xmlns:xlink="http://www.w3.org/1999/xlink">
    <!-- Generator: sketchtool 58 (101010) - https://sketch.com -->
    <title>73FB53AE-5E6D-45E9-A665-B0579F4BE2E2</title>
    <desc>Created with sketchtool.</desc>
    <g id="Visual" stroke="none" stroke-width="1" fill="none" fill-rule="evenodd">
        <g id="Homepage--Copy" transform="translate(-455.000000, -3277.000000)">
            <g id="Bostel-is-Used-by" transform="translate(370.000000, 3084.000000)">
                <g id="Clinics" transform="translate(0.000000, 114.000000)">
                    <g id="Group-2" transform="translate(85.000000, 79.000000)">
                        <g id="Group-25" fill="#F3F3F3">
                            <path d="M25.638852,-1.03584031e-15 L84.361148,1.03584031e-15 C93.2763354,-6.01853049e-16 96.5091978,0.928256111 99.768457,2.67132704 C103.027716,4.41439796 105.585602,6.97228371 107.328673,10.231543 C109.071744,13.4908022 110,16.7236646 110,25.638852 L110,84.361148 C110,93.2763354 109.071744,96.5091978 107.328673,99.768457 C105.585602,103.027716 103.027716,105.585602 99.768457,107.328673 C96.5091978,109.071744 93.2763354,110 84.361148,110 L25.638852,110 C16.7236646,110 13.4908022,109.071744 10.231543,107.328673 C6.97228371,105.585602 4.41439796,103.027716 2.67132704,99.768457 C0.928256111,96.5091978 4.01235366e-16,93.2763354 -6.90560205e-16,84.361148 L6.90560205e-16,25.638852 C-4.01235366e-16,16.7236646 0.928256111,13.4908022 2.67132704,10.231543 C4.41439796,6.97228371 6.97228371,4.41439796 10.231543,2.67132704 C13.4908022,0.928256111 16.7236646,6.01853049e-16 25.638852,-1.03584031e-15 Z" id="Rectangle"></path>
                        </g>
                        <g id="icons8-hospital_room" transform="translate(26.000000, 34.000000)" fill="#F36B1C" fill-rule="nonzero">
                            <path d="M38.8800022,0 L38.8800022,4.86000028 L34.020002,4.86000028 L34.020002,9.72000056 L38.8800022,9.72000056 L38.8800022,14.5800008 L43.7400025,14.5800008 L43.7400025,9.72000056 L48.6000028,9.72000056 L48.6000028,4.86000028 L43.7400025,4.86000028 L43.7400025,0 L38.8800022,0 Z M0,9.72000056 L0,41.3100024 L4.86000028,41.3100024 L4.86000028,34.020002 L53.4600031,34.020002 L53.4600031,41.3100024 L58.3200033,41.3100024 L58.3200033,19.4400011 L53.4600031,19.4400011 L53.4600031,29.1600017 L14.5800008,29.1600017 L14.5800008,24.3000014 L4.86000028,24.3000014 L4.86000028,9.72000056 L0,9.72000056 Z" id="Shape"></path>
                        </g>
                    </g>
                </g>
            </g>
        </g>
    </g>
</svg>