<?xml version="1.0" encoding="UTF-8"?>
<svg width="72px" height="72px" viewBox="0 0 72 72" version="1.1" xmlns="http://www.w3.org/2000/svg" xmlns:xlink="http://www.w3.org/1999/xlink">
    <!-- Generator: Sketch 58 (84663) - https://sketch.com -->
    <title>Group 10Homecare</title>
    <desc>Created with Sketch.</desc>
    <g id="Page-1" stroke="none" stroke-width="1" fill="none" fill-rule="evenodd">
        <g id="Home-1-1-Copy-2" transform="translate(-962.000000, -2868.000000)" fill="#FFFFFF">
            <g id="Group-9" transform="translate(348.000000, 2313.000000)">
                <g id="Group-36" transform="translate(210.000000, 460.000000)">
                    <g id="Group-39" transform="translate(300.000000, 0.000000)">
                        <g id="Group-10" transform="translate(103.043856, 94.038587)">
                            <circle id="Oval" opacity="0.100000001" cx="36.9561442" cy="36.9614129" r="36"></circle>
                            <g id="Group-5" transform="translate(22.000000, 18.000000)" fill-rule="nonzero">
                                <path d="M19.5586814,17.2028058 C18.5100611,17.2028058 17.5243064,17.6126156 16.7830935,18.3567352 L15.4792592,19.660493 L14.1805109,18.3567352 C13.4392147,17.6126156 12.4538768,17.2028058 11.4057568,17.2028058 C10.3576368,17.2028058 9.37213217,17.6126156 8.63100269,18.3567352 C7.88962308,19.1008548 7.48149744,20.0901404 7.48149744,21.1423707 C7.48149744,22.1946847 7.88970645,23.184054 8.63100269,23.9280899 L15.4805099,30.8045416 L22.3321014,23.9280062 C23.073481,23.1837192 23.4821069,22.1943499 23.4826075,21.1420359 C23.4830241,20.0897219 23.0751486,19.10052 22.3341858,18.3567352 C21.592973,17.6126993 20.607385,17.2028058 19.5586814,17.2028058 Z" id="Path"></path>
                                <path d="M15.4774249,6.1817218e-13 L1.61648472e-13,13.1017778 L1.61648472e-13,38.5833952 L30.9355067,38.5833952 L30.9355067,13.1010245 L15.4774249,6.1817218e-13 Z M23.5593965,25.1602816 L15.4804265,33.2686739 L7.40370761,25.1601979 C6.3347436,24.0871256 5.74594211,22.6602407 5.74594211,21.1424544 C5.74594211,19.6247518 6.3347436,18.1978669 7.40370761,17.1246272 C8.47267162,16.0515549 9.89389933,15.4604444 11.4058402,15.4604444 C12.9176976,15.4604444 14.3389253,16.0515549 15.4078893,17.1247109 L15.4817605,17.198788 L15.5572158,17.1235391 C16.6248458,16.0515549 18.0463236,15.4604444 19.5587647,15.4604444 C21.0709557,15.4604444 22.4925169,16.0516386 23.5614809,17.1247946 C24.6304449,18.1978669 25.2188295,19.6249192 25.2183296,21.1429566 C25.2174955,22.6603244 24.6284439,24.0870419 23.5593965,25.1602816 Z" id="Shape"></path>
                            </g>
                        </g>
                    </g>
                </g>
            </g>
        </g>
    </g>
</svg>