<?xml version="1.0" encoding="UTF-8"?>
<svg width="72px" height="72px" viewBox="0 0 72 72" version="1.1" xmlns="http://www.w3.org/2000/svg" xmlns:xlink="http://www.w3.org/1999/xlink">
    <!-- Generator: Sketch 58 (84663) - https://sketch.com -->
    <title>Group 8Families</title>
    <desc>Created with Sketch.</desc>
    <g id="Page-1" stroke="none" stroke-width="1" fill="none" fill-rule="evenodd">
        <g id="Home-1-1-Copy-2" transform="translate(-662.000000, -2868.000000)" fill="#FFFFFF">
            <g id="Group-9" transform="translate(348.000000, 2313.000000)">
                <g id="Group-36" transform="translate(210.000000, 460.000000)">
                    <g id="Group-40">
                        <g id="Group-8" transform="translate(104.000000, 95.000000)">
                            <circle id="Oval" opacity="0.100000001" cx="36" cy="36" r="36"></circle>
                            <g id="icons8-family" transform="translate(20.000000, 21.000000)" fill-rule="nonzero">
                                <path d="M8.61538462,0 C5.89423138,0 3.69230769,2.23632875 3.69230769,5 C3.69230769,7.7636725 5.89423138,10 8.61538462,10 C11.3365391,10 13.5384615,7.7636725 13.5384615,5 C13.5384615,2.23632875 11.3365391,0 8.61538462,0 Z M23.3846154,0 C20.6634622,0 18.4615385,2.23632875 18.4615385,5 C18.4615385,7.7636725 20.6634622,10 23.3846154,10 C26.1057698,10 28.3076923,7.7636725 28.3076923,5 C28.3076923,2.23632875 26.1057698,0 23.3846154,0 Z M8.61538462,11.25 C6.89423138,11.25 5.42307692,11.6113288 4.19230769,12.109375 C1.60576985,13.1103513 0,15.6103513 0,18.359375 L0,30 L9.84615385,30 L9.84615385,28.75 C9.84615385,27.1240237 10.8317305,25.6347662 12.3076923,24.8828125 C13.5384615,24.2578125 15.0144234,23.6328125 16,23.6328125 C16.9855766,23.6328125 18.4615385,24.2675787 19.6923077,24.765625 C21.1682695,25.5175787 22.1538462,27.0068362 22.1538462,28.6328125 L22.1538462,29.8828125 L32,29.8828125 L32,18.2421875 C32,15.615235 30.2692308,13.1103513 27.8076923,12.109375 C26.5769231,11.6113288 25.1057698,11.25 23.3846154,11.25 C19.8173083,11.25 17.3557698,12.7490237 16,13.75 C14.6442314,12.6269538 12.1826929,11.25 8.61538462,11.25 Z M16,15 C18.0913465,15 19.6923077,16.6259763 19.6923077,18.75 C19.6923077,20.8740237 18.0913465,22.5 16,22.5 C13.9086535,22.5 12.3076923,20.8740237 12.3076923,18.75 C12.3076923,16.6259763 13.9086535,15 16,15 Z" id="Shape"></path>
                            </g>
                        </g>
                    </g>
                </g>
            </g>
        </g>
    </g>
</svg>