<?xml version="1.0" encoding="UTF-8"?>
<svg width="72px" height="72px" viewBox="0 0 72 72" version="1.1" xmlns="http://www.w3.org/2000/svg" xmlns:xlink="http://www.w3.org/1999/xlink">
    <!-- Generator: Sketch 58 (84663) - https://sketch.com -->
    <title>Group 11longtermcare</title>
    <desc>Created with Sketch.</desc>
    <g id="Page-1" stroke="none" stroke-width="1" fill="none" fill-rule="evenodd">
        <g id="Home-1-1-Copy-2" transform="translate(-1262.000000, -2868.000000)" fill="#FFFFFF">
            <g id="Group-9" transform="translate(348.000000, 2313.000000)">
                <g id="Group-36" transform="translate(210.000000, 460.000000)">
                    <g id="Group-37" transform="translate(600.000000, 0.000000)">
                        <g id="Group-11" transform="translate(104.000000, 95.000000)">
                            <circle id="Oval" opacity="0.05" cx="36" cy="36" r="36"></circle>
                            <g id="icons8-survival_bag" transform="translate(20.000000, 20.000000)" fill-rule="nonzero">
                                <path d="M16,0 C7.82211569,0 4.10576985,2.70673108 2.61538462,5.57692308 C2.34134646,5.96634585 2.31730831,6.47596185 2.54807754,6.89423138 C2.78365415,7.30769231 3.23557662,7.54807754 3.71153846,7.51442338 C4.18750031,7.48076923 4.59615385,7.17307692 4.76923077,6.73076923 C5.81249969,4.71634585 8.33653908,2.46153846 16,2.46153846 C23.6634622,2.46153846 26.1923077,4.70673108 27.1923077,6.69230769 C27.4903852,7.30769231 28.2307692,7.56730831 28.8461538,7.26923077 C29.4615385,6.97115446 29.7211545,6.23076923 29.4230769,5.61538462 C27.9615385,2.71634585 24.1778843,0 16,0 Z M2.46153846,8.61538462 C1.94711508,8.61538462 0.115384615,13.5288468 0.115384615,19.6923077 C0.115384615,25.8557698 0.591346462,32 1.26923077,32 L30.7692308,32 C31.4471151,32 31.8846154,25.8221157 31.8846154,19.6923077 C31.8846154,13.5624997 30.0528849,8.61538462 29.5384615,8.61538462 L2.46153846,8.61538462 Z M16,13.2307692 C19.5576923,13.2307692 22.4615385,16.1346154 22.4615385,19.6923077 C22.4615385,23.25 19.5576923,26.1538462 16,26.1538462 C12.4423077,26.1538462 9.53846154,23.25 9.53846154,19.6923077 C9.53846154,16.1346154 12.4423077,13.2307692 16,13.2307692 Z M14.7692308,16 L14.7692308,18.4615385 L12.3076923,18.4615385 L12.3076923,20.9230769 L14.7692308,20.9230769 L14.7692308,23.3846154 L17.2307692,23.3846154 L17.2307692,20.9230769 L19.6923077,20.9230769 L19.6923077,18.4615385 L17.2307692,18.4615385 L17.2307692,16 L14.7692308,16 Z" id="Shape"></path>
                            </g>
                        </g>
                    </g>
                </g>
            </g>
        </g>
    </g>
</svg>