<?xml version="1.0" encoding="UTF-8"?>
<svg width="72px" height="72px" viewBox="0 0 72 72" version="1.1" xmlns="http://www.w3.org/2000/svg" xmlns:xlink="http://www.w3.org/1999/xlink">
    <!-- Generator: Sketch 58 (84663) - https://sketch.com -->
    <title>Group 16Assisted Living</title>
    <desc>Created with Sketch.</desc>
    <g id="Page-1" stroke="none" stroke-width="1" fill="none" fill-rule="evenodd">
        <g id="Home-1-1-Copy-2" transform="translate(-1562.000000, -2868.000000)" fill="#FFFFFF">
            <g id="Group-9" transform="translate(348.000000, 2313.000000)">
                <g id="Group-36" transform="translate(210.000000, 460.000000)">
                    <g id="Group-38" transform="translate(900.000000, 0.000000)">
                        <g id="Group-16" transform="translate(104.000000, 94.179742)">
                            <circle id="Oval" opacity="0.100000001" cx="36" cy="36.820258" r="36"></circle>
                            <path d="M36.1851852,22.0054432 C36.0555556,22.0332209 35.9305553,22.0841469 35.8148148,22.1535913 L28.7037037,26.2276654 C28.3333333,26.4406289 28.1064818,26.8387765 28.1110416,27.2647024 L28.1110416,34.3758135 C28.1110416,34.7184067 28.2592593,35.0424802 28.5185185,35.2647024 L35.5555556,41.3017395 C35.9861108,41.6813697 36.6250003,41.6952577 37.0740741,41.3387765 L44.2962963,35.2647024 C44.5555556,35.0424802 44.7037732,34.7184067 44.7037732,34.3758135 L44.7037732,27.2647024 C44.708333,26.8387765 44.4814815,26.4406289 44.1111111,26.2276654 L37,22.1535913 C36.7870376,22.0332209 36.5416664,21.982295 36.2962963,22.0054432 C36.2592593,22.0054432 36.2222222,22.0054432 36.1851852,22.0054432 Z M36.4074074,24.5609987 L42.1111111,27.857295 L37.1481481,31.3017395 L31.5925926,27.3387765 L36.4074074,24.5609987 Z M22.7777778,27.9313691 C21.7962963,27.9313691 21,28.7276654 21,29.7091469 L21,38.9684061 C21,41.491554 21.5833339,41.8017395 22.4074074,42.7091469 C23.2268516,43.6165543 28.1111111,49.2647024 28.1111111,49.2647024 L28.1111111,52.820258 L34,52.820258 C34,52.820258 34.037037,50.4452583 34.037037,47.894332 C34.037037,45.3434058 33.2361114,43.5748879 31.7037037,42.0424802 L26.4074074,36.7461839 C25.7129636,36.05174 24.5833339,36.05174 23.8888889,36.7461839 C23.194445,37.4406289 23.194445,38.5702586 23.8888889,39.2647024 L29,44.3387765 C29,44.3387765 27.3055561,44.4221104 26.5185185,43.6350728 C25.7314821,42.8480363 24.1666667,41.2832209 23.4444444,40.5609987 C22.4027781,39.5193323 22.1851852,39.0841466 22.1851852,37.894332 C22.1851852,36.0980358 23.9259259,35.1535913 24.5555556,35.1165543 L24.5555556,29.7091469 C24.5555556,28.7276654 23.7592593,27.9313691 22.7777778,27.9313691 Z M50.037037,27.9313691 C49.0555556,27.9313691 48.2592593,28.7276654 48.2592593,29.7091469 L48.2592593,35.1165543 C48.8888889,35.1535913 50.6296296,36.0980358 50.6296296,37.894332 C50.6296296,39.0841466 50.4120367,39.5193323 49.3703704,40.5609987 C48.6481481,41.2832209 47.0833339,42.8480363 46.2962963,43.6350728 C45.5092599,44.4221104 43.8148148,44.3387765 43.8148148,44.3387765 L48.9259259,39.2647024 C49.620371,38.5702586 49.620371,37.4406289 48.9259259,36.7461839 C48.2314821,36.05174 47.1018524,36.05174 46.4074074,36.7461839 L41.1111111,42.0424802 C39.5787034,43.5748879 38.7777778,45.3434058 38.7777778,47.894332 C38.7777778,50.4452583 38.8148148,52.820258 38.8148148,52.820258 L44.7037037,52.820258 L44.7037037,49.2647024 C44.7037037,49.2647024 49.5879633,43.6165543 50.4074074,42.7091469 C51.2314821,41.8017395 51.8148148,41.491554 51.8148148,38.9684061 L51.8148148,29.7091469 C51.8148148,28.7276654 51.0185185,27.9313691 50.037037,27.9313691 Z M30.4814815,29.4498876 L36.3333333,33.6350728 C36.3564812,33.648962 36.3842596,33.6628512 36.4074074,33.6721098 L36.4074074,38.7832209 L36.3333333,38.857295 L30.4814815,33.7832209 L30.4814815,29.4498876 Z" id="Shape" fill-rule="nonzero"></path>
                        </g>
                    </g>
                </g>
            </g>
        </g>
    </g>
</svg>