<?xml version="1.0" encoding="UTF-8"?>
<svg width="21px" height="15px" viewBox="0 0 21 15" version="1.1" xmlns="http://www.w3.org/2000/svg" xmlns:xlink="http://www.w3.org/1999/xlink">
    <!-- Generator: sketchtool 58 (101010) - https://sketch.com -->
    <title>7AEE6890-77D9-4B5B-A5EA-DC30C9F89DAF</title>
    <desc>Created with sketchtool.</desc>
    <g id="Visual" stroke="none" stroke-width="1" fill="none" fill-rule="evenodd">
        <g id="Contact-Us" transform="translate(-372.000000, -944.000000)" fill="#F36B1C" fill-rule="nonzero">
            <g id="Information" transform="translate(371.000000, 779.000000)">
                <g id="Office">
                    <g id="Group-14-Copy" transform="translate(1.000000, 154.000000)">
                        <g id="letter-mail-send-forward" transform="translate(0.000000, 11.000000)">
                            <path d="M18.375,0 L2.04176875,0 C0.91905625,0 0,0.9181375 0,2.04176875 L0,12.25 C0,13.3727125 0.91905625,14.2917687 2.04176875,14.2917687 L18.375,14.2917687 C19.4974063,14.2917687 20.4167687,13.3727125 20.4167687,12.25 L20.4167687,2.04176875 C20.4167687,0.9181375 19.4974063,0 18.375,0 Z M16.6762313,2.04176875 L10.2082312,7.8614375 L3.7405375,2.04176875 L16.6762313,2.04176875 Z M18.375,12.25 L2.04176875,12.25 L2.04176875,3.25880625 L9.45056875,9.926175 C9.86706875,10.3019437 10.5512313,10.3019437 10.9658938,9.926175 L18.375,3.25880625 L18.375,12.25 Z" id="Shape"></path>
                        </g>
                    </g>
                </g>
            </g>
        </g>
    </g>
</svg>