<?xml version="1.0" encoding="UTF-8"?>
<svg width="14px" height="14px" viewBox="0 0 14 14" version="1.1" xmlns="http://www.w3.org/2000/svg" xmlns:xlink="http://www.w3.org/1999/xlink">
    <!-- Generator: Sketch 62 (91390) - https://sketch.com -->
    <title>Linkedin icon0</title>
    <desc>Created with Sketch.</desc>
    <g id="Page-1" stroke="none" stroke-width="1" fill="none" fill-rule="evenodd">
        <g id="Linkedin-icon0" fill="#FFFFFF" fill-rule="nonzero">
            <circle id="Oval" cx="1.6875" cy="1.6875" r="1.6875"></circle>
            <path d="M3.09375,4.5 L0.28125,4.5 C0.126,4.5 0,4.626 0,4.78125 L0,13.21875 C0,13.374 0.126,13.5 0.28125,13.5 L3.09375,13.5 C3.249,13.5 3.375,13.374 3.375,13.21875 L3.375,4.78125 C3.375,4.626 3.249,4.5 3.09375,4.5 Z" id="Shape"></path>
            <path d="M11.4733125,4.1124375 C10.27125,3.7006875 8.7676875,4.062375 7.866,4.7109375 C7.8350625,4.59 7.7248125,4.5 7.59375,4.5 L4.78125,4.5 C4.626,4.5 4.5,4.626 4.5,4.78125 L4.5,13.21875 C4.5,13.374 4.626,13.5 4.78125,13.5 L7.59375,13.5 C7.749,13.5 7.875,13.374 7.875,13.21875 L7.875,7.155 C8.3295,6.7635 8.9150625,6.638625 9.3943125,6.84225 C9.8589375,7.0385625 10.125,7.5178125 10.125,8.15625 L10.125,13.21875 C10.125,13.374 10.251,13.5 10.40625,13.5 L13.21875,13.5 C13.374,13.5 13.5,13.374 13.5,13.21875 L13.5,7.5898125 C13.4679375,5.2785 12.380625,4.4229375 11.4733125,4.1124375 Z" id="Shape"></path>
        </g>
    </g>
</svg>