<?xml version="1.0" encoding="UTF-8"?>
<svg width="203px" height="51px" viewBox="0 0 203 51" version="1.1" xmlns="http://www.w3.org/2000/svg" xmlns:xlink="http://www.w3.org/1999/xlink">
    <!-- Generator: Sketch 62 (91390) - https://sketch.com -->
    <title>logo</title>
    <desc>Created with Sketch.</desc>
    <g id="Page-1" stroke="none" stroke-width="1" fill="none" fill-rule="evenodd">
        <g id="logo" fill-rule="nonzero">
            <path d="M196.7,44.18 C198.02,44.18 199.24,43.64 199.24,42.24 C199.24,40.37 196.67,39.52 196.08,39.24 C194.57,38.58 192.25,37.64 192.25,35.24 C192.25,33.43 193.71,31.64 197.25,31.64 C198.473873,31.5906229 199.687864,31.8776921 200.76,32.47 L200.76,32.26 C200.76,32.0478268 200.844285,31.8443437 200.994315,31.6943146 C201.144344,31.5442855 201.347827,31.46 201.56,31.46 L201.56,31.46 L201.56,35.15 L200.76,35.15 C200.76,33.35 199.61,32.46 197.76,32.44 C196.44,32.44 195.19,32.91 195.19,34.33 C195.19,35.96 197.63,36.79 198.19,37.04 C199.74,37.71 202.19,38.6 202.19,41.26 C202.19,42.93 201.12,44.98 197.19,44.98 C195.739672,45.0168745 194.305111,44.6720283 193.03,43.98 L193.03,43.98 C193.03,44.3500308 192.730031,44.65 192.36,44.65 L192.24,44.65 L192.24,40.44 L193.03,40.44 C193.07,42.9 194.42,44.16 196.7,44.18 Z" id="Path" fill="#FFFFFF"></path>
            <path d="M49.71,44.69 L49.71,43.9 L51.53,43.9 L51.53,27.78 L51.53,27.78 C49.0394702,27.7801275 46.9015654,29.5526144 46.44,32 L46.44,32.1 L45.65,32.1 L46.42,27 L60.26,27 L61.06,32.13 L60.26,32.13 L60.26,32 C59.8032479,29.5468115 57.6653399,27.7659215 55.17,27.76 L55.17,27.76 L55.17,43.9 L56.17,43.9 C56.3812483,43.8973258 56.5847665,43.9793756 56.7350901,44.1278202 C56.8854137,44.2762647 56.9700169,44.4787348 56.97,44.69 L49.71,44.69 L49.71,44.69 Z" id="Path" fill="#FFFFFF"></path>
            <path d="M141.46,44.69 L134.19,44.69 L134.19,43.9 L134.19,43.9 C135.192862,43.8890391 136.00006,43.0729218 136,42.07 L136,27.78 L134.18,27.78 L134.18,27 L139.63,27 L139.63,43.9 L140.63,43.9 C141.066305,43.9 141.42,44.253695 141.42,44.69 L141.46,44.69 Z" id="Path" fill="#FFFFFF"></path>
            <path d="M127.9,31.82 C124.426129,31.82 121.61,34.6361289 121.61,38.11 L121.61,38.7 C121.61,42.1738711 124.426129,44.99 127.9,44.99 C131.373871,44.99 134.19,42.1738711 134.19,38.7 L134.19,38.11 C134.19,36.4417883 133.527305,34.8419022 132.347702,33.6622983 C131.168098,32.4826945 129.568212,31.82 127.9,31.82 L127.9,31.82 Z M127.9,44.18 C125.24,44.18 125.25,41.59 125.25,38.4 C125.25,35.21 125.25,32.62 127.9,32.62 C130.55,32.62 130.56,35.21 130.56,38.4 C130.56,41.59 130.56,44.18 127.9,44.18 Z" id="Shape" fill="#FFFFFF"></path>
            <path d="M147.75,31.82 C144.276129,31.82 141.46,34.6361289 141.46,38.11 L141.46,38.7 C141.46,42.1738711 144.276129,44.99 147.75,44.99 C151.223871,44.99 154.04,42.1738711 154.04,38.7 L154.04,38.11 C154.04,34.6361289 151.223871,31.82 147.75,31.82 L147.75,31.82 Z M147.75,44.18 C145.09,44.18 145.09,41.59 145.09,38.4 C145.09,35.21 145.09,32.62 147.75,32.62 C150.41,32.62 150.41,35.21 150.41,38.4 C150.41,41.59 150.41,44.18 147.75,44.18 Z" id="Shape" fill="#FFFFFF"></path>
            <path d="M184.82,44.18 C182.16,44.18 182.16,41.59 182.16,38.41 L187.92,38.41 C188.836027,38.4102831 189.67824,37.9075873 190.112778,37.1011859 C190.547315,36.2947845 190.503999,35.3149125 190,34.55 C189.92,34.43 189.83,34.32 189.74,34.2 C188.530988,32.6762336 186.685012,31.7975491 184.74,31.82 C181.246903,31.9125571 178.471517,34.7857931 178.5,38.28 L178.5,38.7 C178.497318,40.3751549 179.162954,41.9821801 180.349345,43.1648163 C181.535735,44.3474525 183.144862,45.0079918 184.82,45 C187.69,45.07 189.48,43.9 190.39,41.72 L189.68,41.49 C188.853362,43.3812977 186.861588,44.4837406 184.82,44.18 L184.82,44.18 Z M184.82,32.62 C186.68,32.62 187.24,33.9 187.4,35.76 C187.442189,36.2362409 187.281887,36.7082333 186.958389,37.0602759 C186.63489,37.4123185 186.178102,37.6118651 185.7,37.6100384 L182.16,37.6100384 C182.18,34.79 182.38,32.62 184.82,32.62 Z" id="Shape" fill="#FFFFFF"></path>
            <path d="M178.53,44.69 L171.25,44.69 L171.25,43.9 L171.25,43.9 C172.260681,43.9 173.08,43.0806811 173.08,42.07 L173.08,32.92 L171.25,32.92 L171.25,32.12 L176.71,32.12 L176.71,43.9 L177.71,43.9 C177.921248,43.8973258 178.124766,43.9793756 178.27509,44.1278202 C178.425414,44.2762647 178.510017,44.4787348 178.51,44.69 L178.53,44.69 Z" id="Path" fill="#FFFFFF"></path>
            <rect id="Rectangle" fill="#FFFFFF" x="172.78" y="26.99" width="3.93" height="3.93" rx="1.96"></rect>
            <path d="M116.16,42.07 C116.162679,42.5535102 115.97179,43.0179924 115.629891,43.3598911 C115.287992,43.7017897 114.82351,43.8926788 114.34,43.89 L114.34,44.69 L121.610181,44.69 C121.612674,44.4787517 121.530624,44.2752335 121.38218,44.1249099 C121.233735,43.9745863 121.031265,43.8899831 120.82,43.89 L119.82,43.89 L119.82,35.89 C119.82,33.54 118.58,31.89 115.45,31.89 C113.84798,31.8911252 112.350309,32.6848907 111.45,34.01 L111.45,32.11 L106,32.11 L106,32.91 L107.82,32.91 L107.82,42.06 C107.82537,42.5452363 107.635669,43.0123066 107.293476,43.3563802 C106.951282,43.7004539 106.485258,43.8927107 106,43.89 L106,43.89 L106,44.69 L113.28,44.69 C113.28,44.2481722 112.921828,43.89 112.48,43.89 L111.48,43.89 L111.48,38.4 C111.48,36.19 111.96,33.09 114.16,33.09 C115.82,33.09 116.23,35.09 116.24,35.69 L116.16,42.07 Z" id="Path" fill="#FFFFFF"></path>
            <path d="M98.68,42.07 C98.680007,42.5544316 98.486886,43.0188777 98.143404,43.3604828 C97.799922,43.7020879 97.334424,43.8926617 96.85,43.89 L96.85,44.69 L104.13,44.69 C104.13,44.2481722 103.771828,43.89 103.33,43.89 L102.33,43.89 L102.33,35.89 C102.33,33.54 101.09,31.89 97.96,31.89 C96.35798,31.8911252 94.860309,32.6848907 93.96,34.01 L93.96,27 L88.51,27 L88.51,27.8 L90.33,27.8 L90.33,42.07 C90.33,43.0751582 89.515158,43.89 88.51,43.89 L88.51,43.89 L88.51,44.69 L95.78,44.69 C95.78,44.2481722 95.421828,43.89 94.98,43.89 L93.98,43.89 L93.98,38.4 C93.98,36.19 94.45,33.09 96.66,33.09 C98.32,33.09 98.72,35.09 98.74,35.69 L98.68,42.07 Z" id="Path" fill="#FFFFFF"></path>
            <path d="M85.9,41.55 C84.9,43.55 83.28,44.18 81.07,44.18 C78.41,44.18 78.41,41.59 78.41,38.4 C78.41,35.21 78.41,32.62 81.07,32.62 C82.71,32.62 83.34,33.62 83.58,35.14 C83.6699131,35.7831261 84.2206203,36.2612596 84.87,36.26 L84.93,36.26 C85.4300508,36.2518015 85.8818024,35.9596061 86.0943416,35.5068975 C86.3068809,35.0541888 86.2431182,34.519968 85.93,34.13 C84.6418351,32.5546742 82.6702086,31.7011724 80.64,31.84 C77.2984275,32.1175195 74.737539,34.9270804 74.77,38.28 L74.77,38.7 C74.7673402,40.3716779 75.4302341,41.9756534 76.6122904,43.1577096 C77.7943466,44.3397659 79.3983221,45.0026598 81.07,45.0000238 C83.98,45.0000238 85.73,43.9 86.64,41.72 L86.64,41.72 L85.9,41.55 Z" id="Path" fill="#FFFFFF"></path>
            <path d="M72.18,41.55 C71.18,43.55 69.57,44.18 67.35,44.18 L67.35,44.18 C64.69,44.18 64.69,41.59 64.69,38.41 L70.45,38.41 C71.3660273,38.4102831 72.2082401,37.9075873 72.6427777,37.1011859 C73.0773152,36.2947845 73.033999,35.3149125 72.53,34.55 C72.45,34.43 72.36,34.32 72.27,34.2 C71.0619588,32.6750137 69.2153463,31.7960261 67.27,31.82 C63.7769031,31.9125571 61.0015172,34.7857931 61.03,38.28 L61.03,38.7 C61.0273177,40.3751549 61.6929539,41.9821801 62.8793445,43.1648163 C64.0657352,44.3474525 65.674862,45.0079918 67.35,45.0002113 C70.22,45.0002113 72.01,43.9 72.92,41.72 L72.92,41.72 L72.18,41.55 Z M67.35,32.62 C69.21,32.62 69.77,33.9 69.93,35.76 C69.972033,36.2345055 69.8130499,36.7048777 69.4917624,37.056583 C69.1704749,37.4082882 68.7163627,37.6090559 68.24,37.61 L64.69,37.61 C64.71,34.79 64.92,32.62 67.35,32.62 L67.35,32.62 Z" id="Shape" fill="#FFFFFF"></path>
            <path d="M167.54,30.11 C165.77,30.11 164.99,31.95 164.81,32.75 C163.815307,32.1366527 162.66858,31.8144605 161.5,31.82 C158.38,31.82 155.86,33.98 155.86,36.65 C155.887053,38.3166029 156.802199,39.8418464 158.26,40.65 C156.93388,40.7911905 155.945064,41.9375173 156,43.27 C155.984407,44.1785376 156.413814,45.0373517 157.15,45.57 C156.646402,46.0728926 156.353203,46.7486821 156.33,47.46 C156.33,50.01 160.33,50.38 161.64,50.38 C164.79,50.38 168.25,49.44 168.25,46.64 C168.25,43.33 164.63,43.36 164.3,43.36 L158.42,43.24 C158.139568,43.2653441 157.861446,43.1712857 157.653961,42.9809324 C157.446476,42.7905792 157.328857,42.5215726 157.33,42.24 C157.33,41.09 159.27,41.24 160.47,41.37 C160.800789,41.4222699 161.135108,41.4490154 161.47,41.45 C164.58,41.45 167.1,39.29 167.1,36.62 C167.076333,35.2762421 166.457217,34.0123665 165.41,33.17 C165.66,32.27 166.17,31.93 166.69,31.91 C167.051225,31.9644701 167.382934,32.140911 167.63,32.41 C167.833185,32.5991107 168.093535,32.7152128 168.37,32.74 C168.647802,32.7406815 168.913369,32.625771 169.103054,32.4228077 C169.29274,32.2198443 169.389447,31.9471218 169.37,31.67 C169.43,31 169,30.11 167.54,30.11 Z M157.89,46 C158.259141,46.1316911 158.648072,46.1993314 159.04,46.2 L164.56,46.26 C165.82,46.26 166.56,46.51 166.75,46.94 C166.822885,47.1071711 166.860339,47.2876315 166.860006,47.47 C166.860006,48.38 166.01,49.02 164.3,49.39 C163.435777,49.5754756 162.553882,49.6660123 161.67,49.66 C159.45,49.66 158.07,49.14 157.54,48.09 C157.42094,47.861557 157.359168,47.6076061 157.359976,47.35 C157.3982,46.8572415 157.58276,46.3871352 157.89,46 L157.89,46 Z M163.5,38.74 C163.5,39.8445695 162.604569,40.74 161.5,40.74 C160.395431,40.74 159.5,39.8445695 159.5,38.74 L159.5,34.6 C159.5,33.4954305 160.395431,32.6 161.5,32.6 C162.604569,32.6 163.5,33.4954305 163.5,34.6 L163.5,38.74 Z" id="Shape" fill="#FFFFFF"></path>
            <path d="M82,17.36 C83.32,17.36 84.54,16.81 84.54,15.42 C84.54,13.55 81.97,12.7 81.38,12.42 C79.86,11.75 77.54,10.82 77.54,8.42 C77.54,6.6 79.01,4.82 82.59,4.82 C83.8128906,4.7680823 85.0266882,5.0516476 86.1,5.64 L86.1,5.44 C86.1,4.9981722 86.4581722,4.64 86.9,4.64 L86.9,4.64 L86.9,8.33 L86.1,8.33 C86.1,6.53 84.95,5.63 83.1,5.61 C81.78,5.61 80.53,6.08 80.53,7.5 C80.53,9.14 82.97,9.96 83.53,10.22 C85.09,10.89 87.53,11.78 87.53,14.44 C87.53,16.11 86.46,18.16 82.53,18.16 C81.0791725,18.2016363 79.6433917,17.8564966 78.37,17.16 L78.37,17.16 C78.3727248,17.3411688 78.3019575,17.5157171 78.1738373,17.6438373 C78.0457171,17.7719575 77.8711688,17.8427248 77.69,17.84 L77.57,17.84 L77.57,13.62 L78.37,13.62 C78.32,16.07 79.67,17.34 82,17.36 Z" id="Path" fill="#FFFFFF"></path>
            <path d="M119.69,17.87 L112.42,17.87 L112.42,17.07 L112.42,17.07 C112.90351,17.0726788 113.367992,16.8817897 113.709891,16.5398911 C114.05179,16.1979924 114.242679,15.7335102 114.24,15.25 L114.24,1 L112.42,1 L112.42,0.21 L117.87,0.21 L117.87,17.07 L118.87,17.07 C119.081265,17.0699831 119.283735,17.1545863 119.43218,17.3049099 C119.580624,17.4552335 119.662674,17.6587517 119.66,17.87 L119.69,17.87 Z" id="Path" fill="#FFFFFF"></path>
            <path d="M69.38,5 C65.9100348,5.0055166 63.0999956,7.8200304 63.1,11.29 L63.1,11.88 C63.0080303,14.1852126 64.1854233,16.3557892 66.1678758,17.5357662 C68.1503283,18.7157431 70.6196717,18.7157431 72.6021242,17.5357662 C74.5845767,16.3557892 75.7619697,14.1852126 75.67,11.88 L75.67,11.29 C75.67,7.8161289 72.8538711,5 69.38,5 Z M69.38,17.36 C66.73,17.36 66.73,14.77 66.73,11.58 C66.73,8.39 66.73,5.8 69.38,5.8 C72.03,5.8 72.0000225,8.39 72.0000225,11.58 C72.0000225,14.77 72.0000225,17.36 69.38,17.36 Z" id="Shape" fill="#FFFFFF"></path>
            <path d="M109.82,14.73 C108.82,16.67 107.22,17.36 104.99,17.36 L104.99,17.36 C102.33,17.36 102.33,14.77 102.33,11.58 L108.09,11.58 C109.005681,11.5847178 109.849453,11.0844771 110.284706,10.278841 C110.719958,9.4732048 110.675859,8.4932832 110.17,7.73 C110.09,7.61 110,7.49 109.91,7.38 C108.72243,5.8787747 106.914157,5.0022595 105,5 C101.500639,5.0818758 98.716227,7.9598438 98.75,11.46 L98.75,11.88 C98.74993,15.3383099 101.54176,18.1480076 105,18.17 C107.87,18.17 109.67,17.07 110.58,14.89 L110.58,14.89 L109.82,14.73 Z M105,5.8 C106.87,5.8 107.42,7.08 107.59,8.94 C107.629063,9.4155125 107.467689,9.8857221 107.144861,10.2370345 C106.822034,10.588347 106.367113,10.7888117 105.89,10.79 L102.35,10.79 C102.35,8 102.56,5.8 105,5.8 Z" id="Shape" fill="#FFFFFF"></path>
            <path d="M97.91,14.73 C97.48,16.43 96.82,17.36 95.82,17.36 C94.82,17.36 94.74,16.19 94.74,15.04 L94.74,6.09 L97.48,6.09 C97.48,5.8778268 97.395715,5.6743437 97.245685,5.5243146 C97.095656,5.3742855 96.892173,5.29 96.68,5.29 L94.74,5.29 L94.74,1 L91.11,1.8 L91.11,3.51 C91.112662,3.9944243 90.922088,4.4599216 90.580483,4.8034037 C90.238878,5.1468858 89.774432,5.3400073 89.29,5.34 L89.29,5.34 L89.29,6.14 L91.11,6.14 L91.11,13.81 C91.11,17.17 92.82,18.21 95.41,18.21 C98,18.21 98.55,15.73 98.7,14.94 L97.91,14.73 Z" id="Path" fill="#FFFFFF"></path>
            <path d="M56.57,8.25 C57.97,8.25 61.29,9.36 61.29,12.86 C61.29,16.36 57.84,17.86 54.65,17.86 L45.65,17.86 L45.65,17.06 L47.47,17.06 L47.47,1 L45.63,1 L45.63,0.21 L54.27,0.21 C58.64,0.21 60.05,2.08 60.05,4.45 C60.05,6.82 57.33,8.25 56.57,8.25 Z M51.08,1 L51.08,7.91 L53.08,7.91 C55.65,7.91 56.29,6.04 56.29,4.43 C56.29,2.1833333 55.17,1.04 52.93,1 L51.08,1 Z M51.08,8.7 L51.08,17.11 L53.5,17.11 C54.5771689,17.0911458 55.5988292,16.6286806 56.323805,15.8317751 C57.0487808,15.0348696 57.4128249,13.9741454 57.33,12.9 C57.33,9.52 55.26,8.7 53.61,8.7 L51.08,8.7 Z" id="Shape" fill="#FFFFFF"></path>
            <path d="M30.06,15.2 L18.06,3.2 C14.0807884,-0.8040644 7.6090644,-0.8242116 3.605,3.155 C-0.3990644,7.1342116 -0.4192116,13.6059356 3.56,17.61 L8.38,22.43 L3.56,27.25 C-0.2035139,31.2742461 -0.0994504,37.5574937 3.7952625,41.4549038 C7.6899754,45.3523138 13.9731495,45.4607271 18,41.7 L30.05,29.7 C34.0401295,25.7057849 34.0401295,19.2342151 30.05,15.24 M6.05,15.3 L5.93,15.18 C4.6677708,13.9194928 3.9585129,12.2088444 3.9585129,10.425 C3.9585129,8.6411556 4.6677708,6.9305072 5.93,5.67 L6.05,5.55 C7.3122149,4.2871635 9.0245189,3.577657 10.81,3.577657 C12.5954811,3.577657 14.3077851,4.2871635 15.57,5.55 L15.69,5.67 C18.3076339,8.2996209 18.3076339,12.5503791 15.69,15.18 L15.57,15.3 C14.3077851,16.5628365 12.5954811,17.272343 10.81,17.272343 C9.0245189,17.272343 7.3122149,16.5628365 6.05,15.3 M27.71,27.19 L15.55,39.35 C14.2877851,40.6128365 12.5754811,41.322343 10.79,41.322343 C9.0045189,41.322343 7.2922149,40.6128365 6.03,39.35 L5.91,39.23 C4.6477708,37.9694928 3.9385129,36.2588444 3.9385129,34.475 C3.9385129,32.6911556 4.6477708,30.9805072 5.91,29.72 L18.08,17.55 C19.3405072,16.2877708 21.0511556,15.5785129 22.835,15.5785129 C24.6188444,15.5785129 26.3294928,16.2877708 27.59,17.55 L27.71,17.67 C28.9728365,18.9322149 29.682343,20.6445189 29.682343,22.43 C29.682343,24.2154811 28.9728365,25.9277851 27.71,27.19" id="Shape" fill="#F36B1C"></path>
        </g>
    </g>
</svg>