<?xml version="1.0" encoding="UTF-8"?>
<svg width="203px" height="51px" viewBox="0 0 203 51" version="1.1" xmlns="http://www.w3.org/2000/svg" xmlns:xlink="http://www.w3.org/1999/xlink">
    <!-- Generator: Sketch 62 (91390) - https://sketch.com -->
    <title>Logo</title>
    <desc>Created with Sketch.</desc>
    <g id="Page-1" stroke="none" stroke-width="1" fill="none" fill-rule="evenodd">
        <g id="01" transform="translate(-369.000000, -28.000000)">
            <g id="Logo" transform="translate(357.000000, 15.000000)">
                <path d="M208.7,57.18 C210.02,57.18 211.24,56.64 211.24,55.24 C211.24,53.37 208.67,52.52 208.08,52.24 C206.57,51.58 204.25,50.64 204.25,48.24 C204.25,46.43 205.71,44.64 209.25,44.64 C210.473873,44.5906229 211.687864,44.8776921 212.76,45.47 L212.76,45.26 C212.76,45.0478268 212.844285,44.8443437 212.994315,44.6943146 C213.144344,44.5442855 213.347827,44.46 213.56,44.46 L213.56,44.46 L213.56,48.15 L212.76,48.15 C212.76,46.35 211.61,45.46 209.76,45.44 C208.44,45.44 207.19,45.91 207.19,47.33 C207.19,48.96 209.63,49.79 210.19,50.04 C211.74,50.71 214.19,51.6 214.19,54.26 C214.19,55.93 213.12,57.98 209.19,57.98 C207.739672,58.0168745 206.305111,57.6720283 205.03,56.98 L205.03,56.98 C205.03,57.3500308 204.730031,57.65 204.36,57.65 L204.24,57.65 L204.24,53.44 L205.03,53.44 C205.07,55.9 206.42,57.16 208.7,57.18 Z" id="Path" fill="#0E112B" fill-rule="nonzero"></path>
                <path d="M61.71,57.69 L61.71,56.9 L63.53,56.9 L63.53,40.78 L63.53,40.78 C61.0394702,40.7801275 58.9015654,42.5526144 58.44,45 L58.44,45.1 L57.65,45.1 L58.42,40 L72.26,40 L73.06,45.13 L72.26,45.13 L72.26,45 C71.8032479,42.5468115 69.6653399,40.7659215 67.17,40.76 L67.17,40.76 L67.17,56.9 L68.17,56.9 C68.3812483,56.8973258 68.5847665,56.9793756 68.7350901,57.1278202 C68.8854137,57.2762647 68.9700169,57.4787348 68.97,57.69 L61.71,57.69 L61.71,57.69 Z" id="Path" fill="#0E112B" fill-rule="nonzero"></path>
                <path d="M153.46,57.69 L146.19,57.69 L146.19,56.9 L146.19,56.9 C147.192862,56.8890391 148.00006,56.0729218 148,55.07 L148,40.78 L146.18,40.78 L146.18,40 L151.63,40 L151.63,56.9 L152.63,56.9 C153.066305,56.9 153.42,57.253695 153.42,57.69 L153.46,57.69 Z" id="Path" fill="#0E112B" fill-rule="nonzero"></path>
                <path d="M139.9,44.82 C136.426129,44.82 133.61,47.6361289 133.61,51.11 L133.61,51.7 C133.61,55.1738711 136.426129,57.99 139.9,57.99 C143.373871,57.99 146.19,55.1738711 146.19,51.7 L146.19,51.11 C146.19,49.4417883 145.527305,47.8419022 144.347702,46.6622983 C143.168098,45.4826945 141.568212,44.82 139.9,44.82 L139.9,44.82 Z M139.9,57.18 C137.24,57.18 137.25,54.59 137.25,51.4 C137.25,48.21 137.25,45.62 139.9,45.62 C142.55,45.62 142.56,48.21 142.56,51.4 C142.56,54.59 142.56,57.18 139.9,57.18 Z" id="Shape" fill="#0E112B" fill-rule="nonzero"></path>
                <path d="M159.75,44.82 C156.276129,44.82 153.46,47.6361289 153.46,51.11 L153.46,51.7 C153.46,55.1738711 156.276129,57.99 159.75,57.99 C163.223871,57.99 166.04,55.1738711 166.04,51.7 L166.04,51.11 C166.04,47.6361289 163.223871,44.82 159.75,44.82 L159.75,44.82 Z M159.75,57.18 C157.09,57.18 157.09,54.59 157.09,51.4 C157.09,48.21 157.09,45.62 159.75,45.62 C162.41,45.62 162.41,48.21 162.41,51.4 C162.41,54.59 162.41,57.18 159.75,57.18 Z" id="Shape" fill="#0E112B" fill-rule="nonzero"></path>
                <path d="M196.82,57.18 C194.16,57.18 194.16,54.59 194.16,51.41 L199.92,51.41 C200.836027,51.4102831 201.67824,50.9075873 202.112778,50.1011859 C202.547315,49.2947845 202.503999,48.3149125 202,47.55 C201.92,47.43 201.83,47.32 201.74,47.2 C200.530988,45.6762336 198.685012,44.7975491 196.74,44.82 C193.246903,44.9125571 190.471517,47.7857931 190.5,51.28 L190.5,51.7 C190.497318,53.3751549 191.162954,54.9821801 192.349345,56.1648163 C193.535735,57.3474525 195.144862,58.0079918 196.82,58 C199.69,58.07 201.48,56.9 202.39,54.72 L201.68,54.49 C200.853362,56.3812977 198.861588,57.4837406 196.82,57.18 L196.82,57.18 Z M196.82,45.62 C198.68,45.62 199.24,46.9 199.4,48.76 C199.442189,49.2362409 199.281887,49.7082333 198.958389,50.0602759 C198.63489,50.4123185 198.178102,50.6118651 197.7,50.6100258 L194.16,50.6100258 C194.18,47.79 194.38,45.62 196.82,45.62 Z" id="Shape" fill="#0E112B" fill-rule="nonzero"></path>
                <path d="M190.53,57.69 L183.25,57.69 L183.25,56.9 L183.25,56.9 C184.260681,56.9 185.08,56.0806811 185.08,55.07 L185.08,45.92 L183.25,45.92 L183.25,45.12 L188.71,45.12 L188.71,56.9 L189.71,56.9 C189.921248,56.8973258 190.124766,56.9793756 190.27509,57.1278202 C190.425414,57.2762647 190.510017,57.4787348 190.51,57.69 L190.53,57.69 Z" id="Path" fill="#0E112B" fill-rule="nonzero"></path>
                <rect id="Rectangle" fill="#0E112B" fill-rule="nonzero" x="184.78" y="39.99" width="3.93" height="3.93" rx="1.96"></rect>
                <path d="M128.16,55.07 C128.162679,55.5535102 127.97179,56.0179924 127.629891,56.3598911 C127.287992,56.7017897 126.82351,56.8926788 126.34,56.89 L126.34,57.69 L133.610123,57.69 C133.612674,57.4787517 133.530624,57.2752335 133.38218,57.1249099 C133.233735,56.9745863 133.031265,56.8899831 132.82,56.89 L131.82,56.89 L131.82,48.89 C131.82,46.54 130.58,44.89 127.45,44.89 C125.84798,44.8911252 124.350309,45.6848907 123.45,47.01 L123.45,45.11 L118,45.11 L118,45.91 L119.82,45.91 L119.82,55.06 C119.82537,55.5452363 119.635669,56.0123066 119.293476,56.3563802 C118.951282,56.7004539 118.485258,56.8927107 118,56.89 L118,56.89 L118,57.69 L125.28,57.69 C125.28,57.2481722 124.921828,56.89 124.48,56.89 L123.48,56.89 L123.48,51.4 C123.48,49.19 123.96,46.09 126.16,46.09 C127.82,46.09 128.23,48.09 128.24,48.69 L128.16,55.07 Z" id="Path" fill="#0E112B" fill-rule="nonzero"></path>
                <path d="M110.68,55.07 C110.680007,55.5544316 110.486886,56.0188777 110.143404,56.3604828 C109.799922,56.7020879 109.334424,56.8926617 108.85,56.89 L108.85,57.69 L116.13,57.69 C116.13,57.2481722 115.771828,56.89 115.33,56.89 L114.33,56.89 L114.33,48.89 C114.33,46.54 113.09,44.89 109.96,44.89 C108.35798,44.8911252 106.860309,45.6848907 105.96,47.01 L105.96,40 L100.51,40 L100.51,40.8 L102.33,40.8 L102.33,55.07 C102.33,56.0751582 101.515158,56.89 100.51,56.89 L100.51,56.89 L100.51,57.69 L107.78,57.69 C107.78,57.2481722 107.421828,56.89 106.98,56.89 L105.98,56.89 L105.98,51.4 C105.98,49.19 106.45,46.09 108.66,46.09 C110.32,46.09 110.72,48.09 110.74,48.69 L110.68,55.07 Z" id="Path" fill="#0E112B" fill-rule="nonzero"></path>
                <path d="M97.9,54.55 C96.9,56.55 95.28,57.18 93.07,57.18 C90.41,57.18 90.41,54.59 90.41,51.4 C90.41,48.21 90.41,45.62 93.07,45.62 C94.71,45.62 95.34,46.62 95.58,48.14 C95.6699131,48.7831261 96.2206203,49.2612596 96.87,49.26 L96.93,49.26 C97.4300508,49.2518015 97.8818024,48.9596061 98.0943416,48.5068975 C98.3068809,48.0541888 98.2431182,47.519968 97.93,47.13 C96.6418351,45.5546742 94.6702086,44.7011724 92.64,44.84 C89.2984275,45.1175195 86.737539,47.9270804 86.77,51.28 L86.77,51.7 C86.7673402,53.3716779 87.4302341,54.9756534 88.6122904,56.1577096 C89.7943466,57.3397659 91.3983221,58.0026598 93.07,58.0000159 C95.98,58.0000159 97.73,56.9 98.64,54.72 L98.64,54.72 L97.9,54.55 Z" id="Path" fill="#0E112B" fill-rule="nonzero"></path>
                <path d="M84.18,54.55 C83.18,56.55 81.57,57.18 79.35,57.18 L79.35,57.18 C76.69,57.18 76.69,54.59 76.69,51.41 L82.45,51.41 C83.3660273,51.4102831 84.2082401,50.9075873 84.6427777,50.1011859 C85.0773152,49.2947845 85.033999,48.3149125 84.53,47.55 C84.45,47.43 84.36,47.32 84.27,47.2 C83.0619588,45.6750137 81.2153463,44.7960261 79.27,44.82 C75.7769031,44.9125571 73.0015172,47.7857931 73.03,51.28 L73.03,51.7 C73.0273177,53.3751549 73.6929539,54.9821801 74.8793445,56.1648163 C76.0657352,57.3474525 77.674862,58.0079918 79.35,58.0001421 C82.22,58.0001421 84.01,56.9 84.92,54.72 L84.92,54.72 L84.18,54.55 Z M79.35,45.62 C81.21,45.62 81.77,46.9 81.93,48.76 C81.972033,49.2345055 81.8130499,49.7048777 81.4917624,50.056583 C81.1704749,50.4082882 80.7163627,50.6090559 80.24,50.61 L76.69,50.61 C76.71,47.79 76.92,45.62 79.35,45.62 L79.35,45.62 Z" id="Shape" fill="#0E112B" fill-rule="nonzero"></path>
                <path d="M179.54,43.11 C177.77,43.11 176.99,44.95 176.81,45.75 C175.815307,45.1366527 174.66858,44.8144605 173.5,44.82 C170.38,44.82 167.86,46.98 167.86,49.65 C167.887053,51.3166029 168.802199,52.8418464 170.26,53.65 C168.93388,53.7911905 167.945064,54.9375173 168,56.27 C167.984407,57.1785376 168.413814,58.0373517 169.15,58.57 C168.646402,59.0728926 168.353203,59.7486821 168.33,60.46 C168.33,63.01 172.33,63.38 173.64,63.38 C176.79,63.38 180.25,62.44 180.25,59.64 C180.25,56.33 176.63,56.36 176.3,56.36 L170.42,56.24 C170.139568,56.2653441 169.861446,56.1712857 169.653961,55.9809324 C169.446476,55.7905792 169.328857,55.5215726 169.33,55.24 C169.33,54.09 171.27,54.24 172.47,54.37 C172.800789,54.4222699 173.135108,54.4490154 173.47,54.45 C176.58,54.45 179.1,52.29 179.1,49.62 C179.076333,48.2762421 178.457217,47.0123665 177.41,46.17 C177.66,45.27 178.17,44.93 178.69,44.91 C179.051225,44.9644701 179.382934,45.140911 179.63,45.41 C179.833185,45.5991107 180.093535,45.7152128 180.37,45.74 C180.647802,45.7406815 180.913369,45.625771 181.103054,45.4228077 C181.29274,45.2198443 181.389447,44.9471218 181.37,44.67 C181.43,44 181,43.11 179.54,43.11 Z M169.89,59 C170.259141,59.1316911 170.648072,59.1993314 171.04,59.2 L176.56,59.26 C177.82,59.26 178.56,59.51 178.75,59.94 C178.822885,60.1071711 178.860339,60.2876315 178.860004,60.47 C178.860004,61.38 178.01,62.02 176.3,62.39 C175.435777,62.5754756 174.553882,62.6660123 173.67,62.66 C171.45,62.66 170.07,62.14 169.54,61.09 C169.42094,60.861557 169.359168,60.6076061 169.359984,60.35 C169.3982,59.8572415 169.58276,59.3871352 169.89,59 L169.89,59 Z M175.5,51.74 C175.5,52.8445695 174.604569,53.74 173.5,53.74 C172.395431,53.74 171.5,52.8445695 171.5,51.74 L171.5,47.6 C171.5,46.4954305 172.395431,45.6 173.5,45.6 C174.604569,45.6 175.5,46.4954305 175.5,47.6 L175.5,51.74 Z" id="Shape" fill="#0E112B" fill-rule="nonzero"></path>
                <path d="M94,30.36 C95.32,30.36 96.54,29.81 96.54,28.42 C96.54,26.55 93.97,25.7 93.38,25.42 C91.86,24.75 89.54,23.82 89.54,21.42 C89.54,19.6 91.01,17.82 94.59,17.82 C95.8128906,17.7680823 97.0266882,18.0516476 98.1,18.64 L98.1,18.44 C98.1,17.9981722 98.4581722,17.64 98.9,17.64 L98.9,17.64 L98.9,21.33 L98.1,21.33 C98.1,19.53 96.95,18.63 95.1,18.61 C93.78,18.61 92.53,19.08 92.53,20.5 C92.53,22.14 94.97,22.96 95.53,23.22 C97.09,23.89 99.53,24.78 99.53,27.44 C99.53,29.11 98.46,31.16 94.53,31.16 C93.0791725,31.2016363 91.6433917,30.8564966 90.37,30.16 L90.37,30.16 C90.3727248,30.3411688 90.3019575,30.5157171 90.1738373,30.6438373 C90.0457171,30.7719575 89.8711688,30.8427248 89.69,30.84 L89.57,30.84 L89.57,26.62 L90.37,26.62 C90.32,29.07 91.67,30.34 94,30.36 Z" id="Path" fill="#0E112B" fill-rule="nonzero"></path>
                <path d="M131.69,30.87 L124.42,30.87 L124.42,30.07 L124.42,30.07 C124.90351,30.0726788 125.367992,29.8817897 125.709891,29.5398911 C126.05179,29.1979924 126.242679,28.7335102 126.24,28.25 L126.24,14 L124.42,14 L124.42,13.21 L129.87,13.21 L129.87,30.07 L130.87,30.07 C131.081265,30.0699831 131.283735,30.1545863 131.43218,30.3049099 C131.580624,30.4552335 131.662674,30.6587517 131.66,30.87 L131.69,30.87 Z" id="Path" fill="#0E112B" fill-rule="nonzero"></path>
                <path d="M81.38,18 C77.9100348,18.0055166 75.0999956,20.8200304 75.1,24.29 L75.1,24.88 C75.0080303,27.1852126 76.1854233,29.3557892 78.1678758,30.5357662 C80.1503283,31.7157431 82.6196717,31.7157431 84.6021242,30.5357662 C86.5845767,29.3557892 87.7619697,27.1852126 87.67,24.88 L87.67,24.29 C87.67,20.8161289 84.8538711,18 81.38,18 Z M81.38,30.36 C78.73,30.36 78.73,27.77 78.73,24.58 C78.73,21.39 78.73,18.8 81.38,18.8 C84.03,18.8 84.000015,21.39 84.000015,24.58 C84.000015,27.77 84.000015,30.36 81.38,30.36 Z" id="Shape" fill="#0E112B" fill-rule="nonzero"></path>
                <path d="M121.82,27.73 C120.82,29.67 119.22,30.36 116.99,30.36 L116.99,30.36 C114.33,30.36 114.33,27.77 114.33,24.58 L120.09,24.58 C121.005681,24.5847178 121.849453,24.0844771 122.284706,23.278841 C122.719958,22.4732048 122.675859,21.4932832 122.17,20.73 C122.09,20.61 122,20.49 121.91,20.38 C120.72243,18.8787747 118.914157,18.0022595 117,18 C113.500639,18.0818758 110.716227,20.9598438 110.75,24.46 L110.75,24.88 C110.74993,28.3383099 113.54176,31.1480076 117,31.17 C119.87,31.17 121.67,30.07 122.58,27.89 L122.58,27.89 L121.82,27.73 Z M117,18.8 C118.87,18.8 119.42,20.08 119.59,21.94 C119.629063,22.4155125 119.467689,22.8857221 119.144861,23.2370345 C118.822034,23.588347 118.367113,23.7888117 117.89,23.79 L114.35,23.79 C114.35,21 114.56,18.8 117,18.8 Z" id="Shape" fill="#0E112B" fill-rule="nonzero"></path>
                <path d="M109.91,27.73 C109.48,29.43 108.82,30.36 107.82,30.36 C106.82,30.36 106.74,29.19 106.74,28.04 L106.74,19.09 L109.48,19.09 C109.48,18.8778268 109.395715,18.6743437 109.245685,18.5243146 C109.095656,18.3742855 108.892173,18.29 108.68,18.29 L106.74,18.29 L106.74,14 L103.11,14.8 L103.11,16.51 C103.112662,16.9944243 102.922088,17.4599216 102.580483,17.8034037 C102.238878,18.1468858 101.774432,18.3400073 101.29,18.34 L101.29,18.34 L101.29,19.14 L103.11,19.14 L103.11,26.81 C103.11,30.17 104.82,31.21 107.41,31.21 C110,31.21 110.55,28.73 110.7,27.94 L109.91,27.73 Z" id="Path" fill="#0E112B" fill-rule="nonzero"></path>
                <path d="M68.57,21.25 C69.97,21.25 73.29,22.36 73.29,25.86 C73.29,29.36 69.84,30.86 66.65,30.86 L57.65,30.86 L57.65,30.06 L59.47,30.06 L59.47,14 L57.63,14 L57.63,13.21 L66.27,13.21 C70.64,13.21 72.05,15.08 72.05,17.45 C72.05,19.82 69.33,21.25 68.57,21.25 Z M63.08,14 L63.08,20.91 L65.08,20.91 C67.65,20.91 68.29,19.04 68.29,17.43 C68.29,15.1833333 67.17,14.04 64.93,14 L63.08,14 Z M63.08,21.7 L63.08,30.11 L65.5,30.11 C66.5771689,30.0911458 67.5988292,29.6286806 68.323805,28.8317751 C69.0487808,28.0348696 69.4128249,26.9741454 69.33,25.9 C69.33,22.52 67.26,21.7 65.61,21.7 L63.08,21.7 Z" id="Shape" fill="#0E112B" fill-rule="nonzero"></path>
                <path d="M42.06,28.2 L30.06,16.2 C26.0807884,12.1959356 19.6090644,12.1757884 15.605,16.155 C11.6009356,20.1342116 11.5807884,26.6059356 15.56,30.61 L20.38,35.43 L15.56,40.25 C11.7964861,44.2742461 11.9005496,50.5574937 15.7952625,54.4549038 C19.6899754,58.3523138 25.9731495,58.4607271 30,54.7 L42.05,42.7 C46.0401295,38.7057849 46.0401295,32.2342151 42.05,28.24 M18.05,28.3 L17.93,28.18 C16.6677708,26.9194928 15.9585129,25.2088444 15.9585129,23.425 C15.9585129,21.6411556 16.6677708,19.9305072 17.93,18.67 L18.05,18.55 C19.3122149,17.2871635 21.0245189,16.577657 22.81,16.577657 C24.5954811,16.577657 26.3077851,17.2871635 27.57,18.55 L27.69,18.67 C30.3076339,21.2996209 30.3076339,25.5503791 27.69,28.18 L27.57,28.3 C26.3077851,29.5628365 24.5954811,30.272343 22.81,30.272343 C21.0245189,30.272343 19.3122149,29.5628365 18.05,28.3 M39.71,40.19 L27.55,52.35 C26.2877851,53.6128365 24.5754811,54.322343 22.79,54.322343 C21.0045189,54.322343 19.2922149,53.6128365 18.03,52.35 L17.91,52.23 C16.6477708,50.9694928 15.9385129,49.2588444 15.9385129,47.475 C15.9385129,45.6911556 16.6477708,43.9805072 17.91,42.72 L30.08,30.55 C31.3405072,29.2877708 33.0511556,28.5785129 34.835,28.5785129 C36.6188444,28.5785129 38.3294928,29.2877708 39.59,30.55 L39.71,30.67 C40.9728365,31.9322149 41.682343,33.6445189 41.682343,35.43 C41.682343,37.2154811 40.9728365,38.9277851 39.71,40.19" id="Shape" fill="#F36B1C" fill-rule="nonzero"></path>
                <rect id="Rectangle" x="0" y="0" width="226.77" height="70.86"></rect>
            </g>
        </g>
    </g>
</svg>