<?xml version="1.0" encoding="UTF-8"?>
<svg width="110px" height="110px" viewBox="0 0 110 110" version="1.1" xmlns="http://www.w3.org/2000/svg" xmlns:xlink="http://www.w3.org/1999/xlink">
    <!-- Generator: sketchtool 58 (101010) - https://sketch.com -->
    <title>12188BBF-59A0-4143-B414-76573C69A7CC</title>
    <desc>Created with sketchtool.</desc>
    <g id="Visual" stroke="none" stroke-width="1" fill="none" fill-rule="evenodd">
        <g id="Homepage--Copy" transform="translate(-1355.000000, -3277.000000)">
            <g id="Bostel-is-Used-by" transform="translate(370.000000, 3084.000000)">
                <g id="Doctors" transform="translate(900.000000, 114.000000)">
                    <g id="Group-10" transform="translate(85.000000, 79.000000)">
                        <g id="Group-25" fill="#F3F3F3">
                            <path d="M25.638852,-1.03584031e-15 L84.361148,1.03584031e-15 C93.2763354,-6.01853049e-16 96.5091978,0.928256111 99.768457,2.67132704 C103.027716,4.41439796 105.585602,6.97228371 107.328673,10.231543 C109.071744,13.4908022 110,16.7236646 110,25.638852 L110,84.361148 C110,93.2763354 109.071744,96.5091978 107.328673,99.768457 C105.585602,103.027716 103.027716,105.585602 99.768457,107.328673 C96.5091978,109.071744 93.2763354,110 84.361148,110 L25.638852,110 C16.7236646,110 13.4908022,109.071744 10.231543,107.328673 C6.97228371,105.585602 4.41439796,103.027716 2.67132704,99.768457 C0.928256111,96.5091978 4.01235366e-16,93.2763354 -6.90560205e-16,84.361148 L6.90560205e-16,25.638852 C-4.01235366e-16,16.7236646 0.928256111,13.4908022 2.67132704,10.231543 C4.41439796,6.97228371 6.97228371,4.41439796 10.231543,2.67132704 C13.4908022,0.928256111 16.7236646,6.01853049e-16 25.638852,-1.03584031e-15 Z" id="Rectangle"></path>
                        </g>
                        <g id="icons8-medical_doctor" transform="translate(32.000000, 29.000000)" fill="#F36B1C" fill-rule="nonzero">
                            <path d="M14.0332502,0 C14.0332502,0 12.7575002,10.2060001 12.7575002,15.3090002 C12.7575002,20.9376093 17.3348912,25.5150003 22.9635003,25.5150003 C28.5921093,25.5150003 33.1695004,20.9376093 33.1695004,15.3090002 C33.1695004,10.2060001 31.8937504,0 31.8937504,0 L14.0332502,0 Z M18.5880758,5.10300006 L27.3389248,5.10300006 C27.5022208,6.66451808 27.6771185,8.4633256 27.812348,10.2060001 L18.1146526,10.2060001 C18.2524336,8.4633256 18.4247798,6.66451808 18.5880758,5.10300006 Z M17.8605002,15.3090002 L28.0665003,15.3090002 C28.0665003,18.1233047 25.7778048,20.4120002 22.9635003,20.4120002 C20.1491957,20.4120002 17.8605002,18.1233047 17.8605002,15.3090002 Z M22.9635003,33.1695004 C14.9492387,33.1695004 0,37.1141194 0,44.6512505 L0,51.0300006 L45.9270006,51.0300006 L45.9270006,44.6512505 C45.9270006,37.1141194 30.9777619,33.1695004 22.9635003,33.1695004 Z M18.5930588,38.6462544 L22.9635003,45.9270006 L27.3339417,38.6462544 C34.3313642,39.6828115 40.8240005,42.8158162 40.8240005,44.6512505 L40.8240005,45.9270006 L22.9635003,45.9270006 L5.10300006,45.9270006 L5.10300006,44.6512505 C5.10300006,42.8158162 11.5956371,39.6828115 18.5930588,38.6462544 Z" id="Shape"></path>
                        </g>
                    </g>
                </g>
            </g>
        </g>
    </g>
</svg>