<?xml version="1.0" encoding="UTF-8"?>
<svg width="19px" height="22px" viewBox="0 0 19 22" version="1.1" xmlns="http://www.w3.org/2000/svg" xmlns:xlink="http://www.w3.org/1999/xlink">
    <!-- Generator: Sketch 62 (91390) - https://sketch.com -->
    <title>Shape</title>
    <desc>Created with Sketch.</desc>
    <g id="Page-1" stroke="none" stroke-width="1" fill="none" fill-rule="evenodd" opacity="0.5">
        <g id="Publication-card-2-Publication-card" transform="translate(-431.000000, -499.000000)" fill="#000000" fill-rule="nonzero">
            <g id="icons8-download" transform="translate(421.000000, 491.000000)">
                <path d="M12,8 C10.9,8 10,8.9 10,10 L10,26 C10,27.1 10.9,28 12,28 L20.064453,28 C19.887453,27.629 19.785156,27.224781 19.785156,26.800781 C19.785156,26.431781 19.857047,26.070516 19.998047,25.728516 C20.356047,24.863516 21.11,24.257359 22,24.068359 L22,24 L22,23 C22,21.343 23.343,20 25,20 L26,20 L26,14.828125 C26,14.298125 25.789062,13.7890625 25.414062,13.4140625 L20.585938,8.5859375 C20.210937,8.2109375 19.701875,8 19.171875,8 L12,8 Z M19,9.5 L24.5,15 L20,15 C19.448,15 19,14.552 19,14 L19,9.5 Z M16.832031,16 C17.382031,16 17.714,16.373406 17.875,16.941406 C18.035,17.590406 17.875609,18.643375 17.474609,19.859375 C17.715609,20.346375 18.034469,20.832359 18.355469,21.318359 C19.317469,21.237359 20.119562,21.2385 20.601562,21.5625 C21.002562,21.8065 21.083828,22.210266 20.923828,22.697266 C20.682828,23.265266 20.201625,23.509656 19.640625,23.347656 C19.159625,23.185656 18.596156,22.778859 18.035156,22.130859 C17.474156,22.211859 16.912562,22.373156 16.351562,22.535156 C15.7095625,23.670156 15.0697344,24.643719 14.4277344,24.886719 C14.2667344,24.967719 14.1063125,25 13.9453125,25 C13.6243125,25 13.3836562,24.887531 13.2226562,24.644531 C13.0626562,24.401531 12.7418125,23.914547 13.3828125,23.185547 C13.7838125,22.698547 14.7460625,22.212672 15.7890625,21.888672 C16.110062,21.239672 16.350797,20.591328 16.591797,19.861328 C16.030797,18.807328 15.7090625,17.672438 15.7890625,17.023438 C15.8700625,16.373438 16.282031,16 16.832031,16 Z M25,22 C24.448,22 24,22.448 24,23 L24,26 L22.585938,26 C22.262937,26 21.969703,26.195141 21.845703,26.494141 C21.804703,26.593141 21.785156,26.697781 21.785156,26.800781 C21.785156,27.008781 21.866531,27.212234 22.019531,27.365234 L24.419922,29.765625 C24.732922,30.077625 25.237781,30.077625 25.550781,29.765625 L27.951172,27.365234 C28.180172,27.136234 28.247047,26.794141 28.123047,26.494141 C28.000047,26.195141 27.708766,26 27.384766,26 L26,26 L26,23 C26,22.448 25.552,22 25,22 Z" id="Shape"></path>
            </g>
        </g>
    </g>
</svg>