<?xml version="1.0" encoding="UTF-8"?>
<svg width="110px" height="110px" viewBox="0 0 110 110" version="1.1" xmlns="http://www.w3.org/2000/svg" xmlns:xlink="http://www.w3.org/1999/xlink">
    <!-- Generator: Sketch 62 (91390) - https://sketch.com -->
    <title>Group</title>
    <desc>Created with Sketch.</desc>
    <g id="Page-1" stroke="none" stroke-width="1" fill="none" fill-rule="evenodd">
        <g id="Group" fill-rule="nonzero">
            <g id="calendar" fill="#F3F3F3">
                <path d="M25.638852,0 L84.361148,0 C93.2763354,0 96.5091978,0.928256111 99.768457,2.67132704 C103.027716,4.41439796 105.585602,6.97228371 107.328673,10.231543 C109.071744,13.4908022 110,16.7236646 110,25.638852 L110,84.361148 C110,93.2763354 109.071744,96.5091978 107.328673,99.768457 C105.585602,103.027716 103.027716,105.585602 99.768457,107.328673 C96.5091978,109.071744 93.2763354,110 84.361148,110 L25.638852,110 C16.7236646,110 13.4908022,109.071744 10.231543,107.328673 C6.97228371,105.585602 4.41439796,103.027716 2.67132704,99.768457 C0.928256111,96.5091978 0,93.2763354 0,84.361148 L0,25.638852 C0,16.7236646 0.928256111,13.4908022 2.67132704,10.231543 C4.41439796,6.97228371 6.97228371,4.41439796 10.231543,2.67132704 C13.4908022,0.928256111 16.7236646,0 25.638852,0 Z" id="Rectangle"></path>
            </g>
            <path d="M55.3000014,30 L33.4110158,42.766993 C31.9238557,43.6345031 31,45.2468461 31,46.9672862 L31,71.3289867 C31,74.0092769 33.1797101,76.188987 35.8600003,76.188987 L74.7400025,76.188987 C77.4202927,76.188987 79.6000028,74.0092769 79.6000028,71.3289867 L79.6000028,46.9672862 C79.6000028,45.2468461 78.6761459,43.6368191 77.1889858,42.7717391 L55.3000014,30 Z M55.3000014,37.3089848 C60.6678717,37.3089848 65.020002,41.661115 65.020002,47.0289854 C65.020002,52.3968557 60.6678717,56.7489859 55.3000014,56.7489859 C49.9321311,56.7489859 45.5800008,52.3968557 45.5800008,47.0289854 C45.5800008,41.661115 49.9321311,37.3089848 55.3000014,37.3089848 Z M52.8700013,39.7389849 L52.8700013,44.5989852 L48.010001,44.5989852 L48.010001,49.4589855 L52.8700013,49.4589855 L52.8700013,54.3189858 L57.7300015,54.3189858 L57.7300015,49.4589855 L62.5900018,49.4589855 L62.5900018,44.5989852 L57.7300015,44.5989852 L57.7300015,39.7389849 L52.8700013,39.7389849 Z M35.8600003,52.3730878 L55.3000014,64.47088 L74.7400025,52.3730878 L74.7352567,71.3289867 L35.8600003,71.3289867 L35.8600003,52.3730878 Z" id="Shape" fill="#F36B1C"></path>
        </g>
    </g>
</svg>