<?xml version="1.0" encoding="UTF-8"?>
<svg width="19px" height="19px" viewBox="0 0 19 19" version="1.1" xmlns="http://www.w3.org/2000/svg" xmlns:xlink="http://www.w3.org/1999/xlink">
    <!-- Generator: sketchtool 58 (101010) - https://sketch.com -->
    <title>091FCB3A-20EA-47B9-AC9A-3B16E90AC2AE</title>
    <desc>Created with sketchtool.</desc>
    <g id="Visual" stroke="none" stroke-width="1" fill="none" fill-rule="evenodd">
        <g id="Contact-Us" transform="translate(-373.000000, -899.000000)" fill="#F36B1C" fill-rule="nonzero">
            <g id="Information" transform="translate(371.000000, 779.000000)">
                <g id="Office">
                    <g id="Group-10" transform="translate(1.000000, 113.000000)">
                        <g id="bx-phone-call" transform="translate(0.000000, 7.000000)">
                            <path d="M15.707,10.293 C15.5196026,10.1052836 15.2652456,9.99979884 15,9.99979884 C14.7347544,9.99979884 14.4803974,10.1052836 14.293,10.293 L12.699,11.887 C11.96,11.667 10.581,11.167 9.707,10.293 C8.833,9.419 8.333,8.04 8.113,7.301 L9.707,5.707 C9.89471636,5.51960256 10.0002012,5.2652456 10.0002012,5 C10.0002012,4.7347544 9.89471636,4.48039744 9.707,4.293 L5.707,0.293 C5.51960256,0.105283641 5.2652456,-0.000201161803 5,-0.000201161803 C4.7347544,-0.000201161803 4.48039744,0.105283641 4.293,0.293 L1.293,3.293 C1.11943043,3.4661456 1.01581859,3.69722491 1.002,3.942 C0.987,4.192 0.7,10.114 5.293,14.707 C9.281,18.695 14.283,19.006 15.721,19.006 C15.94,19.006 16.058,18.998 16.058,18.998 C16.301,18.983 16.536,18.88 16.707,18.707 L19.707,15.707 C19.8947164,15.5196026 20.0002012,15.2652456 20.0002012,15 C20.0002012,14.7347544 19.8947164,14.4803974 19.707,14.293 L15.707,10.293 L15.707,10.293 Z M15.581,17.005 C14.18,16.984 10.033,16.618 6.707,13.293 C3.365,9.95 3.022,5.671 2.997,4.417 L5,2.414 L7.586,5 L6.293,6.293 C6.05421462,6.53160537 5.95192495,6.87457661 6.021,7.205 C6.045,7.32 6.632,10.047 8.292,11.707 C9.952,13.367 12.679,13.954 12.794,13.978 C13.1243055,14.0486589 13.4678778,13.9465667 13.706,13.707 L15,12.414 L17.586,15 L15.581,17.005 Z M11.99,8.88097105e-16 L11.99,2 C15.473,2 18,4.523 18,8 L20,8 C20,3.439 16.557,8.88097105e-16 11.99,8.88097105e-16 Z" id="Shape"></path>
                            <path d="M14,8 L16,8 C16,5.458 14.542,4 12,4 L12,6 C13.439,6 14,6.561 14,8 Z" id="Path"></path>
                        </g>
                    </g>
                </g>
            </g>
        </g>
    </g>
</svg>