<svg xmlns="http://www.w3.org/2000/svg" xmlns:xlink="http://www.w3.org/1999/xlink">
   <symbol id="assisted-living" viewBox="0 0 72 72">
        <circle id="Oval" opacity="0.100000001" cx="36" cy="36.820258" r="36"></circle>
        <path d="M36.1851852,22.0054432 C36.0555556,22.0332209 35.9305553,22.0841469 35.8148148,22.1535913 L28.7037037,26.2276654 C28.3333333,26.4406289 28.1064818,26.8387765 28.1110416,27.2647024 L28.1110416,34.3758135 C28.1110416,34.7184067 28.2592593,35.0424802 28.5185185,35.2647024 L35.5555556,41.3017395 C35.9861108,41.6813697 36.6250003,41.6952577 37.0740741,41.3387765 L44.2962963,35.2647024 C44.5555556,35.0424802 44.7037732,34.7184067 44.7037732,34.3758135 L44.7037732,27.2647024 C44.708333,26.8387765 44.4814815,26.4406289 44.1111111,26.2276654 L37,22.1535913 C36.7870376,22.0332209 36.5416664,21.982295 36.2962963,22.0054432 C36.2592593,22.0054432 36.2222222,22.0054432 36.1851852,22.0054432 Z M36.4074074,24.5609987 L42.1111111,27.857295 L37.1481481,31.3017395 L31.5925926,27.3387765 L36.4074074,24.5609987 Z M22.7777778,27.9313691 C21.7962963,27.9313691 21,28.7276654 21,29.7091469 L21,38.9684061 C21,41.491554 21.5833339,41.8017395 22.4074074,42.7091469 C23.2268516,43.6165543 28.1111111,49.2647024 28.1111111,49.2647024 L28.1111111,52.820258 L34,52.820258 C34,52.820258 34.037037,50.4452583 34.037037,47.894332 C34.037037,45.3434058 33.2361114,43.5748879 31.7037037,42.0424802 L26.4074074,36.7461839 C25.7129636,36.05174 24.5833339,36.05174 23.8888889,36.7461839 C23.194445,37.4406289 23.194445,38.5702586 23.8888889,39.2647024 L29,44.3387765 C29,44.3387765 27.3055561,44.4221104 26.5185185,43.6350728 C25.7314821,42.8480363 24.1666667,41.2832209 23.4444444,40.5609987 C22.4027781,39.5193323 22.1851852,39.0841466 22.1851852,37.894332 C22.1851852,36.0980358 23.9259259,35.1535913 24.5555556,35.1165543 L24.5555556,29.7091469 C24.5555556,28.7276654 23.7592593,27.9313691 22.7777778,27.9313691 Z M50.037037,27.9313691 C49.0555556,27.9313691 48.2592593,28.7276654 48.2592593,29.7091469 L48.2592593,35.1165543 C48.8888889,35.1535913 50.6296296,36.0980358 50.6296296,37.894332 C50.6296296,39.0841466 50.4120367,39.5193323 49.3703704,40.5609987 C48.6481481,41.2832209 47.0833339,42.8480363 46.2962963,43.6350728 C45.5092599,44.4221104 43.8148148,44.3387765 43.8148148,44.3387765 L48.9259259,39.2647024 C49.620371,38.5702586 49.620371,37.4406289 48.9259259,36.7461839 C48.2314821,36.05174 47.1018524,36.05174 46.4074074,36.7461839 L41.1111111,42.0424802 C39.5787034,43.5748879 38.7777778,45.3434058 38.7777778,47.894332 C38.7777778,50.4452583 38.8148148,52.820258 38.8148148,52.820258 L44.7037037,52.820258 L44.7037037,49.2647024 C44.7037037,49.2647024 49.5879633,43.6165543 50.4074074,42.7091469 C51.2314821,41.8017395 51.8148148,41.491554 51.8148148,38.9684061 L51.8148148,29.7091469 C51.8148148,28.7276654 51.0185185,27.9313691 50.037037,27.9313691 Z M30.4814815,29.4498876 L36.3333333,33.6350728 C36.3564812,33.648962 36.3842596,33.6628512 36.4074074,33.6721098 L36.4074074,38.7832209 L36.3333333,38.857295 L30.4814815,33.7832209 L30.4814815,29.4498876 Z" id="Shape" fill-rule="nonzero"></path>
    </symbol>
    <symbol id="long-term-care" viewBox="0 0 72 72">
        <circle id="Oval" opacity="0.05" cx="36" cy="36" r="36"></circle>
        <g id="icons8-survival_bag" transform="translate(20.000000, 20.000000)" fill-rule="nonzero">
            <path d="M16,0 C7.82211569,0 4.10576985,2.70673108 2.61538462,5.57692308 C2.34134646,5.96634585 2.31730831,6.47596185 2.54807754,6.89423138 C2.78365415,7.30769231 3.23557662,7.54807754 3.71153846,7.51442338 C4.18750031,7.48076923 4.59615385,7.17307692 4.76923077,6.73076923 C5.81249969,4.71634585 8.33653908,2.46153846 16,2.46153846 C23.6634622,2.46153846 26.1923077,4.70673108 27.1923077,6.69230769 C27.4903852,7.30769231 28.2307692,7.56730831 28.8461538,7.26923077 C29.4615385,6.97115446 29.7211545,6.23076923 29.4230769,5.61538462 C27.9615385,2.71634585 24.1778843,0 16,0 Z M2.46153846,8.61538462 C1.94711508,8.61538462 0.115384615,13.5288468 0.115384615,19.6923077 C0.115384615,25.8557698 0.591346462,32 1.26923077,32 L30.7692308,32 C31.4471151,32 31.8846154,25.8221157 31.8846154,19.6923077 C31.8846154,13.5624997 30.0528849,8.61538462 29.5384615,8.61538462 L2.46153846,8.61538462 Z M16,13.2307692 C19.5576923,13.2307692 22.4615385,16.1346154 22.4615385,19.6923077 C22.4615385,23.25 19.5576923,26.1538462 16,26.1538462 C12.4423077,26.1538462 9.53846154,23.25 9.53846154,19.6923077 C9.53846154,16.1346154 12.4423077,13.2307692 16,13.2307692 Z M14.7692308,16 L14.7692308,18.4615385 L12.3076923,18.4615385 L12.3076923,20.9230769 L14.7692308,20.9230769 L14.7692308,23.3846154 L17.2307692,23.3846154 L17.2307692,20.9230769 L19.6923077,20.9230769 L19.6923077,18.4615385 L17.2307692,18.4615385 L17.2307692,16 L14.7692308,16 Z" id="Shape"></path>
        </g>
    </symbol>
    <symbol id="homecare" viewBox="0 0 72 72">
        <circle id="Oval" opacity="0.100000001" cx="36.9561442" cy="36.9614129" r="36"></circle>
        <g id="Group-5" transform="translate(22.000000, 18.000000)" fill-rule="nonzero">
            <path d="M19.5586814,17.2028058 C18.5100611,17.2028058 17.5243064,17.6126156 16.7830935,18.3567352 L15.4792592,19.660493 L14.1805109,18.3567352 C13.4392147,17.6126156 12.4538768,17.2028058 11.4057568,17.2028058 C10.3576368,17.2028058 9.37213217,17.6126156 8.63100269,18.3567352 C7.88962308,19.1008548 7.48149744,20.0901404 7.48149744,21.1423707 C7.48149744,22.1946847 7.88970645,23.184054 8.63100269,23.9280899 L15.4805099,30.8045416 L22.3321014,23.9280062 C23.073481,23.1837192 23.4821069,22.1943499 23.4826075,21.1420359 C23.4830241,20.0897219 23.0751486,19.10052 22.3341858,18.3567352 C21.592973,17.6126993 20.607385,17.2028058 19.5586814,17.2028058 Z" id="Path"></path>
            <path d="M15.4774249,6.1817218e-13 L1.61648472e-13,13.1017778 L1.61648472e-13,38.5833952 L30.9355067,38.5833952 L30.9355067,13.1010245 L15.4774249,6.1817218e-13 Z M23.5593965,25.1602816 L15.4804265,33.2686739 L7.40370761,25.1601979 C6.3347436,24.0871256 5.74594211,22.6602407 5.74594211,21.1424544 C5.74594211,19.6247518 6.3347436,18.1978669 7.40370761,17.1246272 C8.47267162,16.0515549 9.89389933,15.4604444 11.4058402,15.4604444 C12.9176976,15.4604444 14.3389253,16.0515549 15.4078893,17.1247109 L15.4817605,17.198788 L15.5572158,17.1235391 C16.6248458,16.0515549 18.0463236,15.4604444 19.5587647,15.4604444 C21.0709557,15.4604444 22.4925169,16.0516386 23.5614809,17.1247946 C24.6304449,18.1978669 25.2188295,19.6249192 25.2183296,21.1429566 C25.2174955,22.6603244 24.6284439,24.0870419 23.5593965,25.1602816 Z" id="Shape"></path>
        </g>           
    </symbol>
    <symbol id="families" viewBox="0 0 72 72">
        <circle id="Oval" opacity="0.100000001" cx="36" cy="36" r="36"></circle>
        <g id="icons8-family" transform="translate(20.000000, 21.000000)" fill-rule="nonzero">
            <path d="M8.61538462,0 C5.89423138,0 3.69230769,2.23632875 3.69230769,5 C3.69230769,7.7636725 5.89423138,10 8.61538462,10 C11.3365391,10 13.5384615,7.7636725 13.5384615,5 C13.5384615,2.23632875 11.3365391,0 8.61538462,0 Z M23.3846154,0 C20.6634622,0 18.4615385,2.23632875 18.4615385,5 C18.4615385,7.7636725 20.6634622,10 23.3846154,10 C26.1057698,10 28.3076923,7.7636725 28.3076923,5 C28.3076923,2.23632875 26.1057698,0 23.3846154,0 Z M8.61538462,11.25 C6.89423138,11.25 5.42307692,11.6113288 4.19230769,12.109375 C1.60576985,13.1103513 0,15.6103513 0,18.359375 L0,30 L9.84615385,30 L9.84615385,28.75 C9.84615385,27.1240237 10.8317305,25.6347662 12.3076923,24.8828125 C13.5384615,24.2578125 15.0144234,23.6328125 16,23.6328125 C16.9855766,23.6328125 18.4615385,24.2675787 19.6923077,24.765625 C21.1682695,25.5175787 22.1538462,27.0068362 22.1538462,28.6328125 L22.1538462,29.8828125 L32,29.8828125 L32,18.2421875 C32,15.615235 30.2692308,13.1103513 27.8076923,12.109375 C26.5769231,11.6113288 25.1057698,11.25 23.3846154,11.25 C19.8173083,11.25 17.3557698,12.7490237 16,13.75 C14.6442314,12.6269538 12.1826929,11.25 8.61538462,11.25 Z M16,15 C18.0913465,15 19.6923077,16.6259763 19.6923077,18.75 C19.6923077,20.8740237 18.0913465,22.5 16,22.5 C13.9086535,22.5 12.3076923,20.8740237 12.3076923,18.75 C12.3076923,16.6259763 13.9086535,15 16,15 Z" id="Shape"></path>
        </g>           
    </symbol>
    <symbol id="user-outline" viewBox="0 0 32 32">
        <g  stroke="none" stroke-width="1" fill="none" fill-rule="evenodd">
            <g transform="translate(-1354.000000, -50.000000)">
                <g transform="translate(1308.000000, 51.000000)">
                    <g transform="translate(47.000000, 0.000000)">
                        <rect id="Rectangle" stroke="#FFFFFF" stroke-width="2" x="0" y="0" width="30" height="30" rx="15"></rect>
                        <path d="M15.0003514,7 C10.5823413,7 7,10.5816385 7,15 C7,19.4183615 10.5819899,23 15.0003514,23 C19.4190644,23 23.0007028,19.4183615 23.0007028,15 C23.0007028,10.5816385 19.4190644,7 15.0003514,7 Z M15.0003514,9.39209313 C16.4622447,9.39209313 17.6468702,10.5770701 17.6468702,12.0382605 C17.6468702,13.4998023 16.4622447,14.6844278 15.0003514,14.6844278 C13.539161,14.6844278 12.3545355,13.4998023 12.3545355,12.0382605 C12.3545355,10.5770701 13.539161,9.39209313 15.0003514,9.39209313 Z M14.9985943,20.9083681 C13.5405667,20.9083681 12.2051834,20.3773776 11.1751812,19.4984845 C10.9242697,19.2844718 10.7794861,18.9706567 10.7794861,18.6413793 C10.7794861,17.1594553 11.9788711,15.9734241 13.4611465,15.9734241 L16.5402592,15.9734241 C18.022886,15.9734241 19.2177026,17.1594553 19.2177026,18.6413793 C19.2177026,18.9710081 19.0736218,19.2841204 18.8223589,19.4981331 C17.7927081,20.3773776 16.4569734,20.9083681 14.9985943,20.9083681 Z" id="Shape" fill="#FFFFFF" fill-rule="nonzero"></path>
                    </g>
                </g>
            </g>
        </g>
    </symbol>
    <symbol id="user" viewBox="0 0 16 16">
        <g id="header" transform="translate(-1362.000000, -58.000000)">
            <g transform="translate(1308.000000, 51.000000)">
                <g id="Group-5" transform="translate(47.000000, 0.000000)">
                    <path d="M15.0003514,7 C10.5823413,7 7,10.5816385 7,15 C7,19.4183615 10.5819899,23 15.0003514,23 C19.4190644,23 23.0007028,19.4183615 23.0007028,15 C23.0007028,10.5816385 19.4190644,7 15.0003514,7 Z M15.0003514,9.39209313 C16.4622447,9.39209313 17.6468702,10.5770701 17.6468702,12.0382605 C17.6468702,13.4998023 16.4622447,14.6844278 15.0003514,14.6844278 C13.539161,14.6844278 12.3545355,13.4998023 12.3545355,12.0382605 C12.3545355,10.5770701 13.539161,9.39209313 15.0003514,9.39209313 Z M14.9985943,20.9083681 C13.5405667,20.9083681 12.2051834,20.3773776 11.1751812,19.4984845 C10.9242697,19.2844718 10.7794861,18.9706567 10.7794861,18.6413793 C10.7794861,17.1594553 11.9788711,15.9734241 13.4611465,15.9734241 L16.5402592,15.9734241 C18.022886,15.9734241 19.2177026,17.1594553 19.2177026,18.6413793 C19.2177026,18.9710081 19.0736218,19.2841204 18.8223589,19.4981331 C17.7927081,20.3773776 16.4569734,20.9083681 14.9985943,20.9083681 Z" ></path>
                </g>
            </g>
        </g>
    </symbol>
    <symbol id="facebook" viewBox="0 0 7 12">
        <g transform="translate(-680.000000, -5194.000000)">
            <g transform="translate(0.000000, 4537.000000)">
                <g transform="translate(556.000000, 611.000000)">
                    <g transform="translate(112.000000, 36.000000)">
                        <path d="M18.4870603,10.3640316 L18.4870603,12.0870123 L17.4624089,12.0870123 C17.0882243,12.0870123 16.8358711,12.1653288 16.7053416,12.3219642 C16.5748121,12.4785996 16.5095483,12.7135492 16.5095483,13.02682 L16.5095483,14.2603175 L18.4217958,14.2603175 L18.1672646,16.1921444 L16.5095483,16.1921444 L16.5095483,21.1457139 L14.512457,21.1457139 L14.512457,16.1921444 L12.8482143,16.1921444 L12.8482143,14.2603175 L14.512457,14.2603175 L14.512457,12.8375531 C14.512457,12.0282703 14.7387048,11.4006504 15.191207,10.9546746 C15.6437092,10.5086988 16.2463114,10.2857143 16.9990315,10.2857143 C17.638626,10.2857143 18.1346306,10.3118198 18.4870603,10.3640316 Z" id=""></path>
                    </g>
                </g>
            </g>
        </g>
    </symbol>
    <symbol id="twitter" viewBox="0 0 12 10">
        <g transform="translate(-715.000000, -5195.000000)">
            <g transform="translate(0.000000, 4537.000000)">
                <g transform="translate(556.000000, 611.000000)">
                    <g transform="translate(112.000000, 36.000000)">
                        <g transform="translate(37.000000, 0.000000)">
                            <path d="M21.4628568,12.6390935 C21.1491116,13.0980044 20.7698134,13.4890094 20.3249508,13.8121201 C20.3296335,13.8776788 20.3319749,13.9760154 20.3319749,14.1071328 C20.3319749,14.7158922 20.2430037,15.3234718 20.0650587,15.9298897 C19.8871136,16.5363077 19.616688,17.1181325 19.2537738,17.6753814 C18.8908595,18.2326304 18.458881,18.725484 17.9578252,19.1539569 C17.4567694,19.5824299 16.8527019,19.9242665 16.1456044,20.1794772 C15.438507,20.4346879 14.6822519,20.5622913 13.8768164,20.5622913 C12.6077873,20.5622913 11.4464791,20.2227959 10.3928571,19.5437951 C10.5567539,19.5625262 10.739379,19.5718915 10.9407378,19.5718915 C11.9943598,19.5718915 12.93324,19.2487857 13.7574065,18.6025642 C13.2657163,18.5931986 12.825543,18.4421817 12.4368736,18.149509 C12.0482041,17.8568362 11.7812906,17.4833913 11.6361249,17.0291632 C11.7906561,17.052577 11.9334783,17.0642837 12.0645957,17.0642837 C12.2659545,17.0642837 12.464969,17.0385289 12.6616452,16.9870185 C12.1371755,16.8793149 11.7028557,16.6182547 11.3586725,16.2038301 C11.0144893,15.7894054 10.8424003,15.3082586 10.8424003,14.7603752 L10.8424003,14.7322787 C11.1608283,14.9102238 11.5026649,15.006219 11.8679206,15.0202673 C11.5588581,14.8142257 11.3130167,14.5449708 11.1303888,14.2124945 C10.947761,13.8800182 10.8564485,13.5194508 10.8564485,13.1307813 C10.8564485,12.7186981 10.9594678,12.3370585 11.1655094,11.9858511 C11.7321239,12.683583 12.4216506,13.2419943 13.2341102,13.6611017 C14.0465699,14.0802092 14.9163803,14.3131732 15.8435677,14.3600008 C15.8061055,14.1820558 15.7873748,14.0087961 15.7873748,13.8402166 C15.7873748,13.2127262 16.0086321,12.6777283 16.4511533,12.2352071 C16.8936745,11.7926859 17.4286723,11.5714286 18.0561628,11.5714286 C18.7117498,11.5714286 19.2643077,11.810246 19.7138531,12.2878879 C20.2242744,12.1895499 20.7042505,12.0069248 21.1537959,11.7400072 C20.9805336,12.2785252 20.6480624,12.6952849 20.1563721,12.9902991 C20.5918692,12.9434714 21.0273597,12.8264041 21.4628568,12.6390935 Z" id=""></path>
                        </g>
                    </g>
                </g>
            </g>
        </g>
    </symbol>
    <symbol id="youtube" viewBox="0 0 15 10">
        <g transform="translate(-751.000000, -5195.000000)">
            <g transform="translate(0.000000, 4537.000000)">
                <g transform="translate(556.000000, 611.000000)">
                    <g transform="translate(112.000000, 36.000000)">
                        <g transform="translate(74.000000, 0.000000)">
                            <path d="M22.7972464,12.5741777 C22.6253623,11.827511 22.0146377,11.2766415 21.2794203,11.1944676 C19.5384058,11.0001197 17.7762319,10.9991053 16.0221739,11.0001197 C14.2678261,10.9991053 12.5053623,11.0001197 10.7643478,11.1944676 C10.0295652,11.2766415 9.41927536,11.827511 9.2473913,12.5741777 C9.00275362,13.637511 9,14.7982357 9,15.8930183 C9,16.9878009 9,18.1483806 9.24463768,19.211569 C9.41623188,19.9580908 10.0266667,20.5089603 10.7618841,20.5912792 C12.5027536,20.7857719 14.2650725,20.7867864 16.0194203,20.7857719 C17.774058,20.7867864 19.535942,20.7857719 21.2766667,20.5912792 C22.0114493,20.5091053 22.6223188,19.9582357 22.7942029,19.211569 C23.0389855,18.1482357 23.0398551,16.987656 23.0398551,15.8930183 C23.0398551,14.7982357 23.0418841,13.637511 22.7972464,12.5741777 Z M14.2081159,18.0721487 C14.2081159,16.5191053 14.2081159,14.9822937 14.2081159,13.4291053 C15.696087,14.2054821 17.1742029,14.9766415 18.6715942,15.7578009 C17.1788406,16.5320038 15.7,17.2985255 14.2081159,18.0721487 Z" id="Shape"></path>
                        </g>
                    </g>
                </g>
            </g>
        </g>
    </symbol>
    <symbol id="close" viewBox="0 0 14 14">
        <g transform="translate(-285.000000, -37.000000)">
            <g id="menu-close" transform="translate(279.000000, 31.000000)">
                <g transform="translate(13.000000, 13.000000) rotate(-45.000000) translate(-13.000000, -13.000000) translate(4.000000, 4.000000)" id="Rectangle">
                    <rect x="-3.41060513e-13" y="8" width="18" height="2" rx="1"></rect>
                    <rect transform="translate(9.000000, 9.000000) rotate(-270.000000) translate(-9.000000, -9.000000) " x="-3.41060513e-13" y="8" width="18" height="2" rx="1"></rect>
                </g>
            </g>
        </g>
    </symbol>
    <symbol id="instagram" viewBox="0 0 100 100"><path d="M28.267,10.321A18,18,0,0,0,10.321,28.267V71.733A18,18,0,0,0,28.267,89.679H71.733A18,18,0,0,0,89.679,71.733V28.267A18,18,0,0,0,71.733,10.321ZM50,69.422A19.441,19.441,0,1,1,69.439,49.981,19.441,19.441,0,0,1,50,69.422ZM74.261,31.644a5.478,5.478,0,1,1,5.478-5.477A5.477,5.477,0,0,1,74.261,31.644Z"></path></symbol>
    <symbol id="linkedin" viewBox="0 0 14 14">
        <circle id="Oval" cx="1.6875" cy="1.6875" r="1.6875"></circle>
        <path d="M3.09375,4.5 L0.28125,4.5 C0.126,4.5 0,4.626 0,4.78125 L0,13.21875 C0,13.374 0.126,13.5 0.28125,13.5 L3.09375,13.5 C3.249,13.5 3.375,13.374 3.375,13.21875 L3.375,4.78125 C3.375,4.626 3.249,4.5 3.09375,4.5 Z" id="Shape"></path>
        <path d="M11.4733125,4.1124375 C10.27125,3.7006875 8.7676875,4.062375 7.866,4.7109375 C7.8350625,4.59 7.7248125,4.5 7.59375,4.5 L4.78125,4.5 C4.626,4.5 4.5,4.626 4.5,4.78125 L4.5,13.21875 C4.5,13.374 4.626,13.5 4.78125,13.5 L7.59375,13.5 C7.749,13.5 7.875,13.374 7.875,13.21875 L7.875,7.155 C8.3295,6.7635 8.9150625,6.638625 9.3943125,6.84225 C9.8589375,7.0385625 10.125,7.5178125 10.125,8.15625 L10.125,13.21875 C10.125,13.374 10.251,13.5 10.40625,13.5 L13.21875,13.5 C13.374,13.5 13.5,13.374 13.5,13.21875 L13.5,7.5898125 C13.4679375,5.2785 12.380625,4.4229375 11.4733125,4.1124375 Z" id="Shape"></path>
    </symbol>
</svg>